<svg width="1032" height="516" viewBox="0 0 1032 516" fill="none" xmlns="http://www.w3.org/2000/svg">
<g clip-path="url(#clip0_145_176)">
<rect width="516" height="516" transform="translate(516)" fill="#FFFAFA"/>
<path d="M998.5 324C998.5 357.815 991.84 391.3 978.899 422.541C965.958 453.782 946.991 482.169 923.08 506.08C899.169 529.991 870.782 548.958 839.541 561.899C808.3 574.84 774.815 581.5 741 581.5C707.185 581.5 673.7 574.84 642.459 561.899C611.218 548.958 582.831 529.991 558.92 506.08C535.009 482.169 516.042 453.782 503.101 422.541C490.16 391.3 483.5 357.815 483.5 324C483.5 290.185 490.16 256.7 503.101 225.459C516.042 194.218 535.009 165.831 558.92 141.92C582.831 118.009 611.218 99.0416 642.459 86.101C673.7 73.1604 707.185 66.5 741 66.5C774.815 66.5 808.3 73.1604 839.541 86.101C870.782 99.0416 899.169 118.009 923.08 141.92C946.991 165.831 965.958 194.218 978.899 225.459C991.84 256.7 998.5 290.185 998.5 324L998.5 324Z" stroke="#FDD58A"/>
<path d="M742.5 129C767.779 129 792.811 133.979 816.167 143.653C839.522 153.327 860.743 167.507 878.618 185.382C896.493 203.257 910.673 224.478 920.347 247.833C930.021 271.189 935 296.221 935 321.5C935 346.779 930.021 371.811 920.347 395.167C910.673 418.522 896.493 439.743 878.618 457.618C860.743 475.493 839.522 489.673 816.167 499.347C792.811 509.021 767.779 514 742.5 514C717.22 514 692.189 509.021 668.833 499.347C645.478 489.673 624.257 475.493 606.382 457.618C588.507 439.743 574.327 418.522 564.653 395.166C554.979 371.811 550 346.779 550 321.5C550 296.22 554.979 271.189 564.653 247.833C574.327 224.478 588.507 203.257 606.382 185.382C624.257 167.507 645.478 153.327 668.834 143.653C692.189 133.979 717.221 129 742.5 129L742.5 129Z" stroke="#FDD58A" stroke-width="2"/>
<path d="M745 447.5C728.256 447.5 711.677 444.202 696.208 437.795C680.739 431.387 666.683 421.996 654.844 410.156C643.004 398.317 633.613 384.261 627.205 368.792C620.798 353.323 617.5 336.744 617.5 320C617.5 303.256 620.798 286.677 627.205 271.208C633.613 255.739 643.004 241.683 654.844 229.844C666.683 218.004 680.739 208.613 696.208 202.205C711.677 195.798 728.256 192.5 745 192.5C761.744 192.5 778.323 195.798 793.792 202.205C809.261 208.613 823.317 218.004 835.156 229.844C846.996 241.683 856.387 255.739 862.795 271.208C869.202 286.677 872.5 303.256 872.5 320C872.5 336.744 869.202 353.323 862.795 368.792C856.387 384.261 846.996 398.317 835.156 410.156C823.317 421.996 809.261 431.387 793.792 437.795C778.323 444.202 761.743 447.5 745 447.5L745 447.5Z" stroke="#FDD58A" stroke-width="3"/>
<path d="M805 321.5C805 329.708 803.383 337.835 800.242 345.418C797.102 353.001 792.498 359.891 786.694 365.694C780.891 371.498 774.001 376.102 766.418 379.242C758.835 382.383 750.708 384 742.5 384C734.292 384 726.165 382.383 718.582 379.242C710.999 376.102 704.109 371.498 698.306 365.694C692.502 359.891 687.898 353.001 684.758 345.418C681.617 337.835 680 329.708 680 321.5C680 313.292 681.617 305.165 684.758 297.582C687.898 289.999 692.502 283.109 698.306 277.306C704.109 271.502 710.999 266.898 718.582 263.758C726.165 260.617 734.292 259 742.5 259C750.708 259 758.835 260.617 766.418 263.758C774.001 266.898 780.891 271.502 786.694 277.306C792.498 283.109 797.102 289.999 800.242 297.582C803.383 305.165 805 313.292 805 321.5L805 321.5Z" stroke="#FDD58A" stroke-width="4"/>
<path d="M1256.5 66C1256.5 99.8154 1249.84 133.3 1236.9 164.541C1223.96 195.782 1204.99 224.169 1181.08 248.08C1157.17 271.991 1128.78 290.958 1097.54 303.899C1066.3 316.84 1032.82 323.5 999 323.5C965.185 323.5 931.7 316.84 900.459 303.899C869.218 290.958 840.831 271.991 816.92 248.08C793.009 224.169 774.042 195.782 761.101 164.541C748.16 133.3 741.5 99.8154 741.5 66C741.5 32.1846 748.16 -1.29967 761.101 -32.541C774.042 -63.7823 793.009 -92.1689 816.92 -116.08C840.831 -139.991 869.218 -158.958 900.459 -171.899C931.7 -184.84 965.185 -191.5 999 -191.5C1032.82 -191.5 1066.3 -184.84 1097.54 -171.899C1128.78 -158.958 1157.17 -139.991 1181.08 -116.08C1204.99 -92.1689 1223.96 -63.7823 1236.9 -32.5409C1249.84 -1.2996 1256.5 32.1847 1256.5 66L1256.5 66Z" stroke="#F5B441"/>
<path d="M549.5 -65C574.779 -65 599.811 -60.0208 623.167 -50.3468C646.522 -40.6728 667.743 -26.4933 685.618 -8.61804C703.493 9.25724 717.673 30.4783 727.347 53.8335C737.021 77.1886 742 102.221 742 127.5C742 152.779 737.021 177.811 727.347 201.167C717.673 224.522 703.493 245.743 685.618 263.618C667.743 281.493 646.522 295.673 623.167 305.347C599.811 315.021 574.779 320 549.5 320C524.22 320 499.189 315.021 475.833 305.347C452.478 295.673 431.257 281.493 413.382 263.618C395.507 245.743 381.327 224.522 371.653 201.166C361.979 177.811 357 152.779 357 127.5C357 102.22 361.979 77.1885 371.653 53.8333C381.327 30.4782 395.507 9.25713 413.382 -8.61813C431.257 -26.4934 452.478 -40.6728 475.834 -50.3469C499.189 -60.0209 524.221 -65 549.5 -65L549.5 -65Z" stroke="#F5B441" stroke-width="2"/>
<path d="M616 576.5C599.256 576.5 582.677 573.202 567.208 566.795C551.739 560.387 537.683 550.996 525.844 539.156C514.004 527.317 504.613 513.261 498.205 497.792C491.798 482.323 488.5 465.744 488.5 449C488.5 432.256 491.798 415.677 498.205 400.208C504.613 384.739 514.004 370.683 525.844 358.844C537.683 347.004 551.739 337.613 567.208 331.205C582.677 324.798 599.256 321.5 616 321.5C632.744 321.5 649.323 324.798 664.792 331.205C680.261 337.613 694.317 347.004 706.156 358.844C717.996 370.683 727.387 384.739 733.795 400.208C740.202 415.677 743.5 432.256 743.5 449C743.5 465.744 740.202 482.323 733.795 497.792C727.387 513.261 717.996 527.317 706.156 539.156C694.317 550.996 680.261 560.387 664.792 566.795C649.323 573.202 632.743 576.5 616 576.5L616 576.5Z" stroke="#F5B441" stroke-width="3"/>
<path d="M869.3 385.8C869.3 394.008 867.683 402.135 864.543 409.718C861.402 417.301 856.798 424.191 850.994 429.994C845.191 435.798 838.301 440.402 830.718 443.542C823.135 446.683 815.008 448.3 806.8 448.3C798.592 448.3 790.465 446.683 782.882 443.542C775.299 440.402 768.41 435.798 762.606 429.994C756.802 424.19 752.198 417.301 749.058 409.718C745.917 402.135 744.3 394.008 744.3 385.8C744.3 377.592 745.917 369.465 749.058 361.882C752.199 354.299 756.802 347.409 762.606 341.606C768.41 335.802 775.299 331.198 782.882 328.058C790.465 324.917 798.592 323.3 806.8 323.3C815.008 323.3 823.135 324.917 830.718 328.058C838.301 331.198 845.191 335.802 850.994 341.606C856.798 347.409 861.402 354.299 864.543 361.882C867.683 369.465 869.3 377.592 869.3 385.8L869.3 385.8Z" stroke="#F5B441" stroke-width="4"/>
<path d="M743 66.0078C776.201 66.2652 809.046 72.9281 839.732 85.6387C871.034 98.6044 899.476 117.609 923.434 141.566C947.391 165.524 966.396 193.966 979.361 225.268C992.072 255.953 998.734 288.799 998.991 321.999C998.994 321.999 998.997 322 999 322V322.999L999.018 323L999 325L806.974 323.308C806.753 331.162 805.1 338.914 802.09 346.183C798.848 354.008 794.098 361.119 788.108 367.108C782.119 373.098 775.008 377.848 767.183 381.09C760.128 384.012 752.617 385.655 745 385.95V449H741C741 448.978 740.999 448.956 740.999 448.935C725.423 448.451 710.052 445.153 695.634 439.181C679.983 432.698 665.762 423.196 653.783 411.217C641.804 399.238 632.302 385.017 625.819 369.366C619.847 354.948 616.548 339.576 616.064 324C616.043 324 616.021 324 616 324V323H516V320H549V318.5C549.008 318.5 549.017 318.499 549.025 318.499C549.404 294.11 554.388 270.003 563.729 247.451C573.454 223.975 587.707 202.643 605.675 184.675C623.643 166.707 644.975 152.454 668.451 142.729C691.003 133.388 715.11 128.404 739.499 128.025C739.499 128.017 739.5 128.008 739.5 128H740.5V66H743C743 66.0026 743 66.0052 743 66.0078ZM620.068 324.068C620.558 339.096 623.752 353.924 629.515 367.835C635.796 383.001 645.004 396.781 656.611 408.389C668.219 419.996 681.999 429.204 697.165 435.485C711.076 441.247 725.904 444.441 740.931 444.931C740.441 429.904 737.247 415.076 731.485 401.165C725.204 385.999 715.996 372.219 704.389 360.611C692.781 349.004 679.001 339.796 663.835 333.515C649.924 327.752 635.096 324.558 620.068 324.068ZM742.5 131C742.491 131 742.482 131 742.474 131C742.095 155.389 737.112 179.497 727.771 202.049C718.046 225.525 703.793 246.857 685.825 264.825C667.857 282.793 646.525 297.046 623.049 306.771C607.01 313.414 590.184 317.853 573.03 320H620C620 320.021 620 320.043 620 320.064C635.576 320.548 650.948 323.847 665.366 329.819C681.017 336.302 695.238 345.804 707.217 357.783C719.196 369.762 728.698 383.983 735.181 399.634C738.281 407.119 740.659 414.861 742.3 422.755V382H742.413C742.836 374.829 744.454 367.77 747.21 361.117C750.451 353.292 755.202 346.181 761.191 340.191C767.181 334.202 774.292 329.451 782.117 326.21C789.701 323.069 797.813 321.403 806.017 321.304L806.018 321.3L806.339 321.302C806.492 321.301 806.646 321.3 806.8 321.3V321.307L973.935 322.778C948.651 320.31 923.823 314.118 900.268 304.361C868.966 291.396 840.524 272.391 816.566 248.434C792.609 224.476 773.604 196.034 760.639 164.732C751.23 142.018 745.136 118.119 742.5 93.7695V131ZM801.788 326.511C795.692 327.026 789.701 328.48 784.03 330.829C776.811 333.819 770.252 338.201 764.727 343.727C759.202 349.252 754.819 355.811 751.829 363.03C749.48 368.701 748.026 374.692 747.511 380.788C753.607 380.273 759.598 378.82 765.27 376.471C772.488 373.481 779.048 369.098 784.573 363.573C790.098 358.048 794.481 351.488 797.471 344.27C799.82 338.598 801.273 332.607 801.788 326.511ZM743.009 68.0088C743.267 100.944 749.878 133.526 762.487 163.967C775.353 195.026 794.209 223.248 817.98 247.02C841.752 270.791 869.974 289.647 901.033 302.513C931.473 315.121 964.056 321.732 996.99 321.99C996.732 289.056 990.121 256.473 977.513 226.033C964.647 194.974 945.791 166.752 922.02 142.98C898.248 119.209 870.026 100.353 838.967 87.4873C808.526 74.8784 775.944 68.2672 743.009 68.0088ZM739.473 131.026C715.487 131.408 691.778 136.314 669.599 145.501C646.486 155.074 625.485 169.106 607.796 186.796C590.106 204.485 576.074 225.486 566.501 248.599C557.314 270.778 552.408 294.487 552.026 318.473C576.013 318.092 599.721 313.186 621.901 303.999C645.014 294.426 666.015 280.394 683.704 262.704C701.394 245.015 715.426 224.014 724.999 200.901C734.186 178.721 739.092 155.013 739.473 131.026Z" fill="#4166F5"/>
</g>
<g clip-path="url(#clip1_145_176)">
<rect width="516" height="516" fill="#FFFAFA"/>
<path d="M549.5 -65C574.779 -65 599.811 -60.0208 623.167 -50.3468C646.522 -40.6728 667.743 -26.4933 685.618 -8.61804C703.493 9.25724 717.673 30.4783 727.347 53.8335C737.021 77.1886 742 102.221 742 127.5C742 152.779 737.021 177.811 727.347 201.167C717.673 224.522 703.493 245.743 685.618 263.618C667.743 281.493 646.522 295.673 623.167 305.347C599.811 315.021 574.779 320 549.5 320C524.22 320 499.189 315.021 475.833 305.347C452.478 295.673 431.257 281.493 413.382 263.618C395.507 245.743 381.327 224.522 371.653 201.166C361.979 177.811 357 152.779 357 127.5C357 102.22 361.979 77.1885 371.653 53.8333C381.327 30.4782 395.507 9.25713 413.382 -8.61813C431.257 -26.4934 452.478 -40.6728 475.834 -50.3469C499.189 -60.0209 524.221 -65 549.5 -65L549.5 -65Z" stroke="#F5B441" stroke-width="2"/>
<path d="M616 576.5C599.256 576.5 582.677 573.202 567.208 566.795C551.739 560.387 537.683 550.996 525.844 539.156C514.004 527.317 504.613 513.261 498.205 497.792C491.798 482.323 488.5 465.744 488.5 449C488.5 432.256 491.798 415.677 498.205 400.208C504.613 384.739 514.004 370.683 525.844 358.844C537.683 347.004 551.739 337.613 567.208 331.205C582.677 324.798 599.256 321.5 616 321.5C632.744 321.5 649.323 324.798 664.792 331.205C680.261 337.613 694.317 347.004 706.156 358.844C717.996 370.683 727.387 384.739 733.795 400.208C740.202 415.677 743.5 432.256 743.5 449C743.5 465.744 740.202 482.323 733.795 497.792C727.387 513.261 717.996 527.317 706.156 539.156C694.317 550.996 680.261 560.387 664.792 566.795C649.323 573.202 632.743 576.5 616 576.5L616 576.5Z" stroke="#F5B441" stroke-width="3"/>
<path d="M998.5 324C998.5 357.815 991.84 391.3 978.899 422.541C965.958 453.782 946.991 482.169 923.08 506.08C899.169 529.991 870.782 548.958 839.541 561.899C808.3 574.84 774.815 581.5 741 581.5C707.185 581.5 673.7 574.84 642.459 561.899C611.218 548.958 582.831 529.991 558.92 506.08C535.009 482.169 516.042 453.782 503.101 422.541C490.16 391.3 483.5 357.815 483.5 324C483.5 290.185 490.16 256.7 503.101 225.459C516.042 194.218 535.009 165.831 558.92 141.92C582.831 118.009 611.218 99.0416 642.459 86.101C673.7 73.1604 707.185 66.5 741 66.5C774.815 66.5 808.3 73.1604 839.541 86.101C870.782 99.0416 899.169 118.009 923.08 141.92C946.991 165.831 965.958 194.218 978.899 225.459C991.84 256.7 998.5 290.185 998.5 324L998.5 324Z" stroke="#FDD58A"/>
<line x1="516" y1="321.5" x2="317" y2="321.5" stroke="#FF8DA1" stroke-width="3"/>
<line x1="317" y1="321.5" x2="1.31134e-07" y2="321.5" stroke="#8A2BE2" stroke-width="3"/>
<path d="M193 321.5C167.458 321.5 142.166 326.531 118.568 336.305C94.9702 346.08 73.5287 360.407 55.4677 378.468C37.4067 396.529 23.08 417.97 13.3054 441.568C3.53089 465.166 -1.5 490.458 -1.5 516" stroke="#8A2BE2" stroke-width="3"/>
<path d="M317 321.5C275.174 321.5 233.758 313.262 195.115 297.256C156.473 281.249 121.362 257.789 91.7865 228.213C62.211 198.638 38.7505 163.527 22.7444 124.885C6.73824 86.2424 -1.5 44.826 -1.5 2.99997" stroke="#FF8DA1" stroke-width="3"/>
</g>
<defs>
<clipPath id="clip0_145_176">
<rect width="516" height="516" fill="white" transform="translate(516)"/>
</clipPath>
<clipPath id="clip1_145_176">
<rect width="516" height="516" fill="white"/>
</clipPath>
</defs>
</svg>
