<?xml version="1.0" encoding="UTF-8" standalone="no"?>
<svg
   width="1032"
   height="516"
   viewBox="0 0 1032 516"
   fill="none"
   version="1.1"
   id="svg160"
   sodipodi:docname="IDL and IDS - Draft 8.svg"
   inkscape:export-filename="IDL and IDS - Draft 8.png"
   inkscape:export-xdpi="202.60464"
   inkscape:export-ydpi="202.60464"
   inkscape:version="1.4.2 (ebf0e940d0, 2025-05-08)"
   xmlns:inkscape="http://www.inkscape.org/namespaces/inkscape"
   xmlns:sodipodi="http://sodipodi.sourceforge.net/DTD/sodipodi-0.dtd"
   xmlns="http://www.w3.org/2000/svg"
   xmlns:svg="http://www.w3.org/2000/svg">
  <sodipodi:namedview
     id="namedview160"
     pagecolor="#ffffff"
     bordercolor="#000000"
     borderopacity="0.25"
     inkscape:showpageshadow="2"
     inkscape:pageopacity="0.0"
     inkscape:pagecheckerboard="0"
     inkscape:deskcolor="#d1d1d1"
     inkscape:zoom="1.5833333"
     inkscape:cx="516"
     inkscape:cy="258"
     inkscape:window-width="872"
     inkscape:window-height="970"
     inkscape:window-x="0"
     inkscape:window-y="0"
     inkscape:window-maximized="0"
     inkscape:current-layer="svg160" />
  <g
     clip-path="url(#clip0_166_2)"
     id="g20">
    <rect
       width="516"
       height="516"
       transform="translate(516)"
       fill="#FFFAFA"
       id="rect1" />
    <path
       d="M998.5 324C998.5 357.815 991.84 391.3 978.899 422.541C965.958 453.782 946.991 482.169 923.08 506.08C899.169 529.991 870.782 548.958 839.541 561.899C808.3 574.84 774.815 581.5 741 581.5C707.185 581.5 673.7 574.84 642.459 561.899C611.218 548.958 582.831 529.991 558.92 506.08C535.009 482.169 516.042 453.782 503.101 422.541C490.16 391.3 483.5 357.815 483.5 324C483.5 290.185 490.16 256.7 503.101 225.459C516.042 194.218 535.009 165.831 558.92 141.92C582.831 118.009 611.218 99.0416 642.459 86.101C673.7 73.1604 707.185 66.5 741 66.5C774.815 66.5 808.3 73.1604 839.541 86.101C870.782 99.0416 899.169 118.009 923.08 141.92C946.991 165.831 965.958 194.218 978.899 225.459C991.84 256.7 998.5 290.185 998.5 324L998.5 324Z"
       stroke="url(#paint0_linear_166_2)"
       id="path1" />
    <path
       d="M998.5 324C998.5 357.815 991.84 391.3 978.899 422.541C965.958 453.782 946.991 482.169 923.08 506.08C899.169 529.991 870.782 548.958 839.541 561.899C808.3 574.84 774.815 581.5 741 581.5C707.185 581.5 673.7 574.84 642.459 561.899C611.218 548.958 582.831 529.991 558.92 506.08C535.009 482.169 516.042 453.782 503.101 422.541C490.16 391.3 483.5 357.815 483.5 324C483.5 290.185 490.16 256.7 503.101 225.459C516.042 194.218 535.009 165.831 558.92 141.92C582.831 118.009 611.218 99.0416 642.459 86.101C673.7 73.1604 707.185 66.5 741 66.5C774.815 66.5 808.3 73.1604 839.541 86.101C870.782 99.0416 899.169 118.009 923.08 141.92C946.991 165.831 965.958 194.218 978.899 225.459C991.84 256.7 998.5 290.185 998.5 324L998.5 324Z"
       stroke="url(#paint1_linear_166_2)"
       id="path2" />
    <path
       d="M742.5 129C767.779 129 792.811 133.979 816.167 143.653C839.522 153.327 860.743 167.507 878.618 185.382C896.493 203.257 910.673 224.478 920.347 247.833C930.021 271.189 935 296.221 935 321.5C935 346.779 930.021 371.811 920.347 395.167C910.673 418.522 896.493 439.743 878.618 457.618C860.743 475.493 839.522 489.673 816.167 499.347C792.811 509.021 767.779 514 742.5 514C717.22 514 692.189 509.021 668.833 499.347C645.478 489.673 624.257 475.493 606.382 457.618C588.507 439.743 574.327 418.522 564.653 395.166C554.979 371.811 550 346.779 550 321.5C550 296.22 554.979 271.189 564.653 247.833C574.327 224.478 588.507 203.257 606.382 185.382C624.257 167.507 645.478 153.327 668.834 143.653C692.189 133.979 717.221 129 742.5 129L742.5 129Z"
       stroke="#FDD58A"
       stroke-width="2"
       id="path3" />
    <path
       d="M745 447.5C728.256 447.5 711.677 444.202 696.208 437.795C680.739 431.387 666.683 421.996 654.844 410.156C643.004 398.317 633.613 384.261 627.205 368.792C620.798 353.323 617.5 336.744 617.5 320C617.5 303.256 620.798 286.677 627.205 271.208C633.613 255.739 643.004 241.683 654.844 229.844C666.683 218.004 680.739 208.613 696.208 202.205C711.677 195.798 728.256 192.5 745 192.5C761.744 192.5 778.323 195.798 793.792 202.205C809.261 208.613 823.317 218.004 835.156 229.844C846.996 241.683 856.387 255.739 862.795 271.208C869.202 286.677 872.5 303.256 872.5 320C872.5 336.744 869.202 353.323 862.795 368.792C856.387 384.261 846.996 398.317 835.156 410.156C823.317 421.996 809.261 431.387 793.792 437.795C778.323 444.202 761.743 447.5 745 447.5L745 447.5Z"
       stroke="#FDD58A"
       stroke-width="3"
       id="path4" />
    <path
       d="M805 321.5C805 329.708 803.383 337.835 800.242 345.418C797.102 353.001 792.498 359.891 786.694 365.694C780.891 371.498 774.001 376.102 766.418 379.242C758.835 382.383 750.708 384 742.5 384C734.292 384 726.165 382.383 718.582 379.242C710.999 376.102 704.109 371.498 698.306 365.694C692.502 359.891 687.898 353.001 684.758 345.418C681.617 337.835 680 329.708 680 321.5C680 313.292 681.617 305.165 684.758 297.582C687.898 289.999 692.502 283.109 698.306 277.306C704.109 271.502 710.999 266.898 718.582 263.758C726.165 260.617 734.292 259 742.5 259C750.708 259 758.835 260.617 766.418 263.758C774.001 266.898 780.891 271.502 786.694 277.306C792.498 283.109 797.102 289.999 800.242 297.582C803.383 305.165 805 313.292 805 321.5L805 321.5Z"
       stroke="#FDD58A"
       stroke-width="4"
       id="path5" />
    <path
       d="M1256.5 66C1256.5 99.8154 1249.84 133.3 1236.9 164.541C1223.96 195.782 1204.99 224.169 1181.08 248.08C1157.17 271.991 1128.78 290.958 1097.54 303.899C1066.3 316.84 1032.82 323.5 999 323.5C965.185 323.5 931.7 316.84 900.459 303.899C869.218 290.958 840.831 271.991 816.92 248.08C793.009 224.169 774.042 195.782 761.101 164.541C748.16 133.3 741.5 99.8154 741.5 66C741.5 32.1846 748.16 -1.29967 761.101 -32.541C774.042 -63.7823 793.009 -92.1689 816.92 -116.08C840.831 -139.991 869.218 -158.958 900.459 -171.899C931.7 -184.84 965.185 -191.5 999 -191.5C1032.82 -191.5 1066.3 -184.84 1097.54 -171.899C1128.78 -158.958 1157.17 -139.991 1181.08 -116.08C1204.99 -92.1689 1223.96 -63.7823 1236.9 -32.5409C1249.84 -1.2996 1256.5 32.1847 1256.5 66L1256.5 66Z"
       stroke="#F5B441"
       id="path6" />
    <path
       d="M549.5 -65C574.779 -65 599.811 -60.0208 623.167 -50.3468C646.522 -40.6728 667.743 -26.4933 685.618 -8.61804C703.493 9.25724 717.673 30.4783 727.347 53.8335C737.021 77.1886 742 102.221 742 127.5C742 152.779 737.021 177.811 727.347 201.167C717.673 224.522 703.493 245.743 685.618 263.618C667.743 281.493 646.522 295.673 623.167 305.347C599.811 315.021 574.779 320 549.5 320C524.22 320 499.189 315.021 475.833 305.347C452.478 295.673 431.257 281.493 413.382 263.618C395.507 245.743 381.327 224.522 371.653 201.166C361.979 177.811 357 152.779 357 127.5C357 102.22 361.979 77.1885 371.653 53.8333C381.327 30.4782 395.507 9.25713 413.382 -8.61813C431.257 -26.4934 452.478 -40.6728 475.834 -50.3469C499.189 -60.0209 524.221 -65 549.5 -65L549.5 -65Z"
       stroke="url(#paint2_linear_166_2)"
       stroke-width="2"
       id="path7" />
    <path
       d="M616 576.5C599.256 576.5 582.677 573.202 567.208 566.795C551.739 560.387 537.683 550.996 525.844 539.156C514.004 527.317 504.613 513.261 498.205 497.792C491.798 482.323 488.5 465.744 488.5 449C488.5 432.256 491.798 415.677 498.205 400.208C504.613 384.739 514.004 370.683 525.844 358.844C537.683 347.004 551.739 337.613 567.208 331.205C582.677 324.798 599.256 321.5 616 321.5C632.744 321.5 649.323 324.798 664.792 331.205C680.261 337.613 694.317 347.004 706.156 358.844C717.996 370.683 727.387 384.739 733.795 400.208C740.202 415.677 743.5 432.256 743.5 449C743.5 465.744 740.202 482.323 733.795 497.792C727.387 513.261 717.996 527.317 706.156 539.156C694.317 550.996 680.261 560.387 664.792 566.795C649.323 573.202 632.743 576.5 616 576.5L616 576.5Z"
       stroke="url(#paint3_linear_166_2)"
       stroke-width="3"
       id="path8" />
    <path
       d="M869.3 385.8C869.3 394.008 867.683 402.135 864.543 409.718C861.402 417.301 856.798 424.191 850.994 429.994C845.191 435.798 838.301 440.402 830.718 443.542C823.135 446.683 815.008 448.3 806.8 448.3C798.592 448.3 790.465 446.683 782.882 443.542C775.299 440.402 768.41 435.798 762.606 429.994C756.802 424.19 752.198 417.301 749.058 409.718C745.917 402.135 744.3 394.008 744.3 385.8C744.3 377.592 745.917 369.465 749.058 361.882C752.199 354.299 756.802 347.409 762.606 341.606C768.41 335.802 775.299 331.198 782.882 328.058C790.465 324.917 798.592 323.3 806.8 323.3C815.008 323.3 823.135 324.917 830.718 328.058C838.301 331.198 845.191 335.802 850.994 341.606C856.798 347.409 861.402 354.299 864.543 361.882C867.683 369.465 869.3 377.592 869.3 385.8L869.3 385.8Z"
       stroke="#F5B441"
       stroke-width="4"
       id="path9" />
    <path
       d="M741 67C774.75 67 808.169 73.6475 839.35 86.563C870.53 99.4784 898.862 118.409 922.726 142.274C946.591 166.138 965.522 194.47 978.437 225.65C991.352 256.831 998 290.25 998 324"
       stroke="#4166F5"
       stroke-width="2"
       id="path10" />
    <path
       d="M999 323C965.25 323 931.831 316.353 900.65 303.437C869.47 290.522 841.138 271.591 817.274 247.726C793.409 223.862 774.478 195.53 761.563 164.35C748.648 133.169 742 99.7497 742 66"
       stroke="#4166F5"
       stroke-width="2"
       id="path11" />
    <path
       d="M550.5 321.5C550.5 296.286 555.466 271.319 565.115 248.025C574.764 224.73 588.907 203.564 606.735 185.736C624.564 167.907 645.73 153.764 669.025 144.115C692.319 134.466 717.286 129.5 742.5 129.5"
       stroke="#4166F5"
       stroke-width="3"
       id="path12" />
    <path
       d="M741 128C741 153.214 736.034 178.181 726.385 201.475C716.736 224.77 702.593 245.936 684.765 263.764C666.936 281.593 645.77 295.736 622.475 305.385C599.181 315.034 574.214 320 549 320"
       stroke="#4166F5"
       stroke-width="3"
       id="path13" />
    <path
       d="M745 447C728.322 447 711.808 443.715 696.399 437.333C680.991 430.95 666.99 421.596 655.197 409.803C643.404 398.01 634.05 384.009 627.667 368.601C621.285 353.192 618 336.678 618 320"
       stroke="#4166F5"
       stroke-width="4"
       id="path14" />
    <path
       d="M616 322C632.678 322 649.192 325.285 664.601 331.667C680.009 338.05 694.01 347.404 705.803 359.197C717.596 370.99 726.95 384.991 733.333 400.399C739.715 415.808 743 432.322 743 449"
       stroke="#4166F5"
       stroke-width="4"
       id="path15" />
    <path
       d="M804.5 321.5C804.5 329.642 802.896 337.704 799.781 345.226C796.665 352.749 792.098 359.583 786.341 365.341C780.583 371.098 773.749 375.665 766.226 378.781C758.704 381.896 750.642 383.5 742.5 383.5"
       stroke="#4166F5"
       stroke-width="5"
       id="path16" />
    <path
       d="M744.8 385.8C744.8 377.658 746.404 369.596 749.52 362.074C752.635 354.551 757.202 347.717 762.959 341.959C768.717 336.202 775.551 331.635 783.074 328.519C790.596 325.404 798.658 323.8 806.8 323.8"
       stroke="#4166F5"
       stroke-width="5"
       id="path17" />
    <line
       x1="617"
       y1="321.5"
       x2="516"
       y2="321.5"
       stroke="url(#paint4_linear_166_2)"
       stroke-width="3"
       id="line17" />
    <line
       x1="743.65"
       y1="449"
       x2="743.65"
       y2="382"
       stroke="#4166F5"
       stroke-width="2.7"
       id="line18" />
    <line
       x1="741.5"
       y1="130"
       x2="741.5"
       y2="66"
       stroke="#4166F5"
       stroke-width="2"
       id="line19" />
    <line
       x1="806.009"
       y1="322.3"
       x2="999.009"
       y2="324"
       stroke="#4166F5"
       stroke-width="2"
       id="line20" />
  </g>
  <g
     clip-path="url(#clip1_166_2)"
     id="g31">
    <rect
       width="516"
       height="516"
       fill="#FFFAFA"
       id="rect20" />
    <path
       d="M549.5 -65C574.779 -65 599.811 -60.0208 623.167 -50.3468C646.522 -40.6728 667.743 -26.4933 685.618 -8.61804C703.493 9.25724 717.673 30.4783 727.347 53.8335C737.021 77.1886 742 102.221 742 127.5C742 152.779 737.021 177.811 727.347 201.167C717.673 224.522 703.493 245.743 685.618 263.618C667.743 281.493 646.522 295.673 623.167 305.347C599.811 315.021 574.779 320 549.5 320C524.22 320 499.189 315.021 475.833 305.347C452.478 295.673 431.257 281.493 413.382 263.618C395.507 245.743 381.327 224.522 371.653 201.166C361.979 177.811 357 152.779 357 127.5C357 102.22 361.979 77.1885 371.653 53.8333C381.327 30.4782 395.507 9.25713 413.382 -8.61813C431.257 -26.4934 452.478 -40.6728 475.834 -50.3469C499.189 -60.0209 524.221 -65 549.5 -65L549.5 -65Z"
       stroke="url(#paint5_linear_166_2)"
       stroke-width="2"
       id="path20" />
    <path
       d="M382.79 31.25C399.686 1.9863 423.986 -22.3145 453.25 -39.2099C482.514 -56.1053 515.709 -65 549.5 -65"
       stroke="url(#paint6_linear_166_2)"
       stroke-width="2"
       id="path21" />
    <path
       d="M360.565 90.6248C364.647 69.7077 372.175 49.6137 382.841 31.1628"
       stroke="url(#paint7_linear_166_2)"
       stroke-width="2"
       id="path22" />
    <path
       d="M616 576.5C599.256 576.5 582.677 573.202 567.208 566.795C551.739 560.387 537.683 550.996 525.844 539.156C514.004 527.317 504.613 513.261 498.205 497.792C491.798 482.323 488.5 465.744 488.5 449C488.5 432.256 491.798 415.677 498.205 400.208C504.613 384.739 514.004 370.683 525.844 358.844C537.683 347.004 551.739 337.613 567.208 331.205C582.677 324.798 599.256 321.5 616 321.5C632.744 321.5 649.323 324.798 664.792 331.205C680.261 337.613 694.317 347.004 706.156 358.844C717.996 370.683 727.387 384.739 733.795 400.208C740.202 415.677 743.5 432.256 743.5 449C743.5 465.744 740.202 482.323 733.795 497.792C727.387 513.261 717.996 527.317 706.156 539.156C694.317 550.996 680.261 560.387 664.792 566.795C649.323 573.202 632.743 576.5 616 576.5L616 576.5Z"
       stroke="url(#paint8_linear_166_2)"
       stroke-width="3"
       id="path23" />
    <path
       d="M998.5 324C998.5 357.815 991.84 391.3 978.899 422.541C965.958 453.782 946.991 482.169 923.08 506.08C899.169 529.991 870.782 548.958 839.541 561.899C808.3 574.84 774.815 581.5 741 581.5C707.185 581.5 673.7 574.84 642.459 561.899C611.218 548.958 582.831 529.991 558.92 506.08C535.009 482.169 516.042 453.782 503.101 422.541C490.16 391.3 483.5 357.815 483.5 324C483.5 290.185 490.16 256.7 503.101 225.459C516.042 194.218 535.009 165.831 558.92 141.92C582.831 118.009 611.218 99.0416 642.459 86.101C673.7 73.1604 707.185 66.5 741 66.5C774.815 66.5 808.3 73.1604 839.541 86.101C870.782 99.0416 899.169 118.009 923.08 141.92C946.991 165.831 965.958 194.218 978.899 225.459C991.84 256.7 998.5 290.185 998.5 324L998.5 324Z"
       stroke="url(#paint9_linear_166_2)"
       id="path24" />
    <path
       d="M998.5 324C998.5 357.815 991.84 391.3 978.899 422.541C965.958 453.782 946.991 482.169 923.08 506.08C899.169 529.991 870.782 548.958 839.541 561.899C808.3 574.84 774.815 581.5 741 581.5C707.185 581.5 673.7 574.84 642.459 561.899C611.218 548.958 582.831 529.991 558.92 506.08C535.009 482.169 516.042 453.782 503.101 422.541C490.16 391.3 483.5 357.815 483.5 324C483.5 290.185 490.16 256.7 503.101 225.459C516.042 194.218 535.009 165.831 558.92 141.92C582.831 118.009 611.218 99.0416 642.459 86.101C673.7 73.1604 707.185 66.5 741 66.5C774.815 66.5 808.3 73.1604 839.541 86.101C870.782 99.0416 899.169 118.009 923.08 141.92C946.991 165.831 965.958 194.218 978.899 225.459C991.84 256.7 998.5 290.185 998.5 324L998.5 324Z"
       stroke="url(#paint10_linear_166_2)"
       id="path25" />
    <line
       x1="294"
       y1="321.5"
       y2="321.5"
       stroke="url(#paint11_linear_166_2)"
       stroke-width="3"
       id="line25" />
    <path
       d="M334.5 322C334.5 332.839 332.519 343.571 328.672 353.583C324.825 363.596 319.186 372.69 312.081 380.35C304.975 388.009 296.542 394.083 287.263 398.225C277.984 402.368 268.041 404.5 258 404.5"
       stroke="#8A2BE2"
       stroke-dasharray="8 8"
       id="path26" />
    <line
       x1="516"
       y1="321.5"
       x2="335"
       y2="321.5"
       stroke="url(#paint12_linear_166_2)"
       stroke-width="3"
       id="line26" />
    <line
       x1="335"
       y1="321.5"
       x2="293"
       y2="321.5"
       stroke="url(#paint13_linear_166_2)"
       stroke-width="3"
       id="line27" />
    <path
       d="M294 321.525C231.463 321.525 170.304 303.157 118.115 268.7C65.9267 234.244 25.0083 185.218 0.44043 127.709"
       stroke="url(#paint14_linear_166_2)"
       stroke-width="1.55"
       stroke-dasharray="8 8"
       id="path27" />
    <path
       d="M110.5 404.5C95.7919 404.5 81.2279 407.397 67.6394 413.025C54.051 418.654 41.7042 426.904 31.304 437.304C20.9039 447.704 12.654 460.051 7.02549 473.639C1.39696 487.228 -1.5 501.792 -1.5 516.5"
       stroke="#FF8DA1"
       stroke-width="3"
       id="path28" />
    <line
       x1="110"
       y1="404.5"
       x2="497"
       y2="404.5"
       stroke="#FF8DA1"
       stroke-width="3"
       id="line28" />
    <line
       x1="356"
       y1="128"
       x2="-8.74228e-08"
       y2="128"
       stroke="#8A2BE2"
       stroke-width="2"
       id="line29" />
    <path
       d="M382.793 31.25C377.219 40.9032 369.203 48.9193 359.55 54.4926C349.897 60.0659 338.947 63 327.8 63"
       stroke="url(#paint15_linear_166_2)"
       stroke-width="2"
       id="path29" />
    <path
       d="M159.084 227V219.488H156.48V218.48H162.72V219.488H160.116V227H159.084ZM164.395 227V218.48H165.403V222.044L165.283 222.02C165.363 221.668 165.499 221.38 165.691 221.156C165.883 220.932 166.119 220.768 166.399 220.664C166.679 220.552 166.983 220.496 167.311 220.496C167.767 220.496 168.151 220.6 168.463 220.808C168.783 221.008 169.023 221.292 169.183 221.66C169.351 222.02 169.435 222.436 169.435 222.908V227H168.427V223.196C168.427 222.58 168.315 222.124 168.091 221.828C167.875 221.532 167.543 221.384 167.095 221.384C166.583 221.384 166.171 221.54 165.859 221.852C165.555 222.164 165.403 222.616 165.403 223.208V227H164.395ZM174.099 227.144C173.499 227.144 172.979 227.008 172.539 226.736C172.107 226.464 171.771 226.08 171.531 225.584C171.299 225.08 171.183 224.492 171.183 223.82C171.183 223.148 171.299 222.564 171.531 222.068C171.771 221.572 172.103 221.188 172.527 220.916C172.959 220.636 173.467 220.496 174.051 220.496C174.603 220.496 175.091 220.628 175.515 220.892C175.939 221.148 176.271 221.524 176.511 222.02C176.751 222.516 176.871 223.12 176.871 223.832V224.132H172.239C172.279 224.812 172.459 225.324 172.779 225.668C173.107 226.012 173.547 226.184 174.099 226.184C174.515 226.184 174.855 226.088 175.119 225.896C175.391 225.696 175.579 225.436 175.683 225.116L176.763 225.2C176.595 225.768 176.275 226.236 175.803 226.604C175.339 226.964 174.771 227.144 174.099 227.144ZM172.239 223.244H175.767C175.719 222.628 175.539 222.176 175.227 221.888C174.915 221.6 174.523 221.456 174.051 221.456C173.563 221.456 173.159 221.608 172.839 221.912C172.527 222.208 172.327 222.652 172.239 223.244ZM185.981 227V218.48H191.261V219.464H186.485L187.013 218.96V222.872L186.485 222.344H191.045V223.328H186.485L187.013 222.8V227H185.981ZM195.253 227V220.184C195.253 219.928 195.181 219.728 195.037 219.584C194.893 219.44 194.693 219.368 194.437 219.368H192.937V218.48H194.485C195.069 218.48 195.509 218.632 195.805 218.936C196.109 219.232 196.261 219.672 196.261 220.256V227H195.253ZM192.697 227V226.112H198.457V227H192.697ZM202.328 227.144C201.696 227.144 201.192 226.932 200.816 226.508C200.44 226.076 200.252 225.484 200.252 224.732V220.64H201.26V224.456C201.26 225.072 201.368 225.528 201.584 225.824C201.808 226.112 202.148 226.256 202.604 226.256C203.1 226.256 203.492 226.096 203.78 225.776C204.068 225.448 204.212 225 204.212 224.432V220.64H205.22V227H204.26V225.428L204.416 225.512C204.288 226.032 204.044 226.436 203.684 226.724C203.324 227.004 202.872 227.144 202.328 227.144ZM208.911 227V220.232C208.911 219.664 209.055 219.232 209.343 218.936C209.639 218.632 210.087 218.48 210.687 218.48H212.727V219.368H210.687C210.439 219.368 210.247 219.448 210.111 219.608C209.983 219.76 209.919 219.968 209.919 220.232V227H208.911ZM207.207 221.528V220.64H212.607V221.528H207.207ZM216.107 227V220.232C216.107 219.664 216.251 219.232 216.539 218.936C216.835 218.632 217.283 218.48 217.883 218.48H219.923V219.368H217.883C217.635 219.368 217.443 219.448 217.307 219.608C217.179 219.76 217.115 219.968 217.115 220.232V227H216.107ZM214.403 221.528V220.64H219.803V221.528H214.403ZM222.414 228.8V227.912H223.146C223.37 227.912 223.534 227.876 223.638 227.804C223.75 227.74 223.834 227.632 223.89 227.48L224.118 226.88H223.77L221.406 220.64H222.51L224.442 225.944L226.254 220.64H227.358L224.778 227.804C224.658 228.148 224.478 228.4 224.238 228.56C223.998 228.72 223.666 228.8 223.242 228.8H222.414ZM238.88 227.192C238.28 227.192 237.748 227.068 237.284 226.82C236.82 226.572 236.448 226.232 236.168 225.8C235.888 225.36 235.724 224.852 235.676 224.276L236.756 224.204C236.812 224.628 236.932 224.988 237.116 225.284C237.308 225.58 237.552 225.804 237.848 225.956C238.152 226.108 238.504 226.184 238.904 226.184C239.304 226.184 239.64 226.136 239.912 226.04C240.184 225.936 240.388 225.788 240.524 225.596C240.668 225.396 240.74 225.16 240.74 224.888C240.74 224.616 240.676 224.38 240.548 224.18C240.428 223.972 240.196 223.78 239.852 223.604C239.516 223.428 239.016 223.248 238.352 223.064C237.76 222.896 237.28 222.712 236.912 222.512C236.552 222.312 236.288 222.068 236.12 221.78C235.96 221.492 235.88 221.136 235.88 220.712C235.88 220.232 235.992 219.812 236.216 219.452C236.448 219.084 236.776 218.8 237.2 218.6C237.624 218.392 238.128 218.288 238.712 218.288C239.296 218.288 239.796 218.408 240.212 218.648C240.628 218.88 240.956 219.2 241.196 219.608C241.444 220.016 241.6 220.48 241.664 221L240.584 221.072C240.536 220.728 240.436 220.424 240.284 220.16C240.132 219.888 239.924 219.676 239.66 219.524C239.396 219.372 239.072 219.296 238.688 219.296C238.16 219.296 237.74 219.424 237.428 219.68C237.116 219.928 236.96 220.256 236.96 220.664C236.96 220.928 237.016 221.148 237.128 221.324C237.248 221.492 237.456 221.644 237.752 221.78C238.048 221.908 238.464 222.048 239 222.2C239.696 222.392 240.248 222.608 240.656 222.848C241.072 223.088 241.368 223.376 241.544 223.712C241.728 224.04 241.82 224.44 241.82 224.912C241.82 225.36 241.696 225.756 241.448 226.1C241.2 226.444 240.856 226.712 240.416 226.904C239.976 227.096 239.464 227.192 238.88 227.192ZM244 228.8V227.912H244.732C244.956 227.912 245.12 227.876 245.224 227.804C245.336 227.74 245.42 227.632 245.476 227.48L245.704 226.88H245.356L242.992 220.64H244.096L246.028 225.944L247.84 220.64H248.944L246.364 227.804C246.244 228.148 246.064 228.4 245.824 228.56C245.584 228.72 245.252 228.8 244.828 228.8H244ZM253.259 227.144C252.707 227.144 252.231 227.048 251.831 226.856C251.431 226.664 251.115 226.408 250.883 226.088C250.659 225.76 250.531 225.396 250.499 224.996L251.555 224.924C251.619 225.316 251.791 225.624 252.071 225.848C252.359 226.072 252.755 226.184 253.259 226.184C253.731 226.184 254.095 226.116 254.351 225.98C254.615 225.844 254.747 225.632 254.747 225.344C254.747 225.16 254.703 225.008 254.615 224.888C254.527 224.768 254.363 224.668 254.123 224.588C253.883 224.5 253.531 224.416 253.067 224.336C252.451 224.224 251.967 224.088 251.615 223.928C251.271 223.76 251.027 223.552 250.883 223.304C250.739 223.056 250.667 222.76 250.667 222.416C250.667 222.048 250.759 221.72 250.943 221.432C251.127 221.144 251.399 220.916 251.759 220.748C252.119 220.58 252.559 220.496 253.079 220.496C253.607 220.496 254.047 220.592 254.399 220.784C254.759 220.968 255.043 221.216 255.251 221.528C255.459 221.832 255.595 222.168 255.659 222.536L254.603 222.608C254.555 222.384 254.463 222.188 254.327 222.02C254.199 221.844 254.027 221.708 253.811 221.612C253.603 221.508 253.355 221.456 253.067 221.456C252.603 221.456 252.259 221.548 252.035 221.732C251.811 221.916 251.699 222.144 251.699 222.416C251.699 222.632 251.751 222.804 251.855 222.932C251.959 223.06 252.127 223.164 252.359 223.244C252.591 223.316 252.899 223.384 253.283 223.448C253.939 223.552 254.447 223.688 254.807 223.856C255.167 224.016 255.419 224.216 255.563 224.456C255.707 224.696 255.779 224.992 255.779 225.344C255.779 225.72 255.667 226.044 255.443 226.316C255.227 226.58 254.927 226.784 254.543 226.928C254.167 227.072 253.739 227.144 253.259 227.144ZM261.27 227C260.654 227 260.194 226.856 259.89 226.568C259.586 226.28 259.434 225.84 259.434 225.248V219.152H260.442V225.248C260.442 225.544 260.51 225.764 260.646 225.908C260.782 226.044 260.99 226.112 261.27 226.112H262.974V227H261.27ZM257.334 221.528V220.64H262.974V221.528H257.334ZM267.638 227.144C267.038 227.144 266.518 227.008 266.078 226.736C265.646 226.464 265.31 226.08 265.07 225.584C264.838 225.08 264.722 224.492 264.722 223.82C264.722 223.148 264.838 222.564 265.07 222.068C265.31 221.572 265.642 221.188 266.066 220.916C266.498 220.636 267.006 220.496 267.59 220.496C268.142 220.496 268.63 220.628 269.054 220.892C269.478 221.148 269.81 221.524 270.05 222.02C270.29 222.516 270.41 223.12 270.41 223.832V224.132H265.778C265.818 224.812 265.998 225.324 266.318 225.668C266.646 226.012 267.086 226.184 267.638 226.184C268.054 226.184 268.394 226.088 268.658 225.896C268.93 225.696 269.118 225.436 269.222 225.116L270.302 225.2C270.134 225.768 269.814 226.236 269.342 226.604C268.878 226.964 268.31 227.144 267.638 227.144ZM265.778 223.244H269.306C269.258 222.628 269.078 222.176 268.766 221.888C268.454 221.6 268.062 221.456 267.59 221.456C267.102 221.456 266.698 221.608 266.378 221.912C266.066 222.208 265.866 222.652 265.778 223.244ZM271.605 227V220.64H272.529L272.565 222.056L272.445 222.032C272.517 221.56 272.669 221.188 272.901 220.916C273.141 220.636 273.445 220.496 273.813 220.496C274.189 220.496 274.477 220.632 274.677 220.904C274.885 221.176 275.013 221.576 275.061 222.104H274.941C275.013 221.608 275.173 221.216 275.421 220.928C275.677 220.64 275.997 220.496 276.381 220.496C276.893 220.496 277.265 220.672 277.497 221.024C277.729 221.376 277.845 221.96 277.845 222.776V227H276.837V222.92C276.837 222.352 276.777 221.956 276.657 221.732C276.537 221.5 276.349 221.384 276.093 221.384C275.925 221.384 275.777 221.44 275.649 221.552C275.521 221.656 275.417 221.824 275.337 222.056C275.265 222.288 275.229 222.584 275.229 222.944V227H274.221V222.92C274.221 222.376 274.161 221.984 274.041 221.744C273.929 221.504 273.741 221.384 273.477 221.384C273.309 221.384 273.161 221.44 273.033 221.552C272.905 221.656 272.801 221.824 272.721 222.056C272.649 222.288 272.613 222.584 272.613 222.944V227H271.605ZM289.188 228.896L286.476 223.004L289.056 217.592H290.004L287.472 223.004L290.136 228.896H289.188ZM303.825 227C303.497 227 303.221 226.952 302.997 226.856C302.781 226.752 302.597 226.584 302.445 226.352C302.301 226.112 302.165 225.792 302.037 225.392L300.393 220.04C300.329 219.824 300.241 219.66 300.129 219.548C300.025 219.428 299.865 219.368 299.649 219.368H298.893V218.48H299.565C300.069 218.48 300.461 218.604 300.741 218.852C301.029 219.092 301.261 219.504 301.437 220.088L303.081 225.44C303.129 225.576 303.181 225.696 303.237 225.8C303.293 225.904 303.365 225.984 303.453 226.04C303.549 226.088 303.669 226.112 303.813 226.112H304.233V227H303.825ZM298.341 227L300.837 220.64L301.545 221.396L299.397 227H298.341ZM312.323 228.896L314.987 223.004L312.455 217.592H313.403L315.983 223.004L313.271 228.896H312.323Z"
       fill="black"
       id="path30" />
    <path
       d="M159.084 465V457.488H156.48V456.48H162.72V457.488H160.116V465H159.084ZM164.395 465V456.48H165.403V460.044L165.283 460.02C165.363 459.668 165.499 459.38 165.691 459.156C165.883 458.932 166.119 458.768 166.399 458.664C166.679 458.552 166.983 458.496 167.311 458.496C167.767 458.496 168.151 458.6 168.463 458.808C168.783 459.008 169.023 459.292 169.183 459.66C169.351 460.02 169.435 460.436 169.435 460.908V465H168.427V461.196C168.427 460.58 168.315 460.124 168.091 459.828C167.875 459.532 167.543 459.384 167.095 459.384C166.583 459.384 166.171 459.54 165.859 459.852C165.555 460.164 165.403 460.616 165.403 461.208V465H164.395ZM174.099 465.144C173.499 465.144 172.979 465.008 172.539 464.736C172.107 464.464 171.771 464.08 171.531 463.584C171.299 463.08 171.183 462.492 171.183 461.82C171.183 461.148 171.299 460.564 171.531 460.068C171.771 459.572 172.103 459.188 172.527 458.916C172.959 458.636 173.467 458.496 174.051 458.496C174.603 458.496 175.091 458.628 175.515 458.892C175.939 459.148 176.271 459.524 176.511 460.02C176.751 460.516 176.871 461.12 176.871 461.832V462.132H172.239C172.279 462.812 172.459 463.324 172.779 463.668C173.107 464.012 173.547 464.184 174.099 464.184C174.515 464.184 174.855 464.088 175.119 463.896C175.391 463.696 175.579 463.436 175.683 463.116L176.763 463.2C176.595 463.768 176.275 464.236 175.803 464.604C175.339 464.964 174.771 465.144 174.099 465.144ZM172.239 461.244H175.767C175.719 460.628 175.539 460.176 175.227 459.888C174.915 459.6 174.523 459.456 174.051 459.456C173.563 459.456 173.159 459.608 172.839 459.912C172.527 460.208 172.327 460.652 172.239 461.244ZM185.861 465V456.48H188.453C189.045 456.48 189.561 456.584 190.001 456.792C190.441 457 190.781 457.3 191.021 457.692C191.261 458.076 191.381 458.54 191.381 459.084C191.381 459.628 191.261 460.096 191.021 460.488C190.781 460.872 190.441 461.168 190.001 461.376C189.561 461.584 189.045 461.688 188.453 461.688H186.893V465H185.861ZM186.893 460.68H188.333C189.005 460.68 189.501 460.544 189.821 460.272C190.141 459.992 190.301 459.596 190.301 459.084C190.301 458.564 190.141 458.168 189.821 457.896C189.501 457.624 189.005 457.488 188.333 457.488H186.893V460.68ZM195.685 465.144C195.085 465.144 194.565 465.008 194.125 464.736C193.693 464.464 193.357 464.08 193.117 463.584C192.885 463.08 192.769 462.492 192.769 461.82C192.769 461.148 192.885 460.564 193.117 460.068C193.357 459.572 193.689 459.188 194.113 458.916C194.545 458.636 195.053 458.496 195.637 458.496C196.189 458.496 196.677 458.628 197.101 458.892C197.525 459.148 197.857 459.524 198.097 460.02C198.337 460.516 198.457 461.12 198.457 461.832V462.132H193.825C193.865 462.812 194.045 463.324 194.365 463.668C194.693 464.012 195.133 464.184 195.685 464.184C196.101 464.184 196.441 464.088 196.705 463.896C196.977 463.696 197.165 463.436 197.269 463.116L198.349 463.2C198.181 463.768 197.861 464.236 197.389 464.604C196.925 464.964 196.357 465.144 195.685 465.144ZM193.825 461.244H197.353C197.305 460.628 197.125 460.176 196.813 459.888C196.501 459.6 196.109 459.456 195.637 459.456C195.149 459.456 194.745 459.608 194.425 459.912C194.113 460.208 193.913 460.652 193.825 461.244ZM203.708 465C203.092 465 202.632 464.856 202.328 464.568C202.024 464.28 201.872 463.84 201.872 463.248V457.152H202.88V463.248C202.88 463.544 202.948 463.764 203.084 463.908C203.22 464.044 203.428 464.112 203.708 464.112H205.412V465H203.708ZM199.772 459.528V458.64H205.412V459.528H199.772ZM209.127 465.144C208.727 465.144 208.367 465.072 208.047 464.928C207.727 464.784 207.475 464.584 207.291 464.328C207.107 464.064 207.015 463.76 207.015 463.416C207.015 462.872 207.175 462.452 207.495 462.156C207.823 461.852 208.335 461.632 209.031 461.496L211.167 461.064C211.167 460.52 211.043 460.116 210.795 459.852C210.555 459.588 210.207 459.456 209.751 459.456C209.311 459.456 208.967 459.556 208.719 459.756C208.471 459.948 208.299 460.228 208.203 460.596L207.135 460.512C207.255 459.912 207.539 459.428 207.987 459.06C208.443 458.684 209.031 458.496 209.751 458.496C210.519 458.496 211.115 458.728 211.539 459.192C211.963 459.648 212.175 460.28 212.175 461.088V463.728C212.175 463.872 212.207 463.972 212.271 464.028C212.335 464.084 212.431 464.112 212.559 464.112H212.967V465C212.919 465.008 212.843 465.012 212.739 465.012C212.635 465.02 212.535 465.024 212.439 465.024C212.167 465.024 211.935 464.98 211.743 464.892C211.559 464.804 211.419 464.664 211.323 464.472C211.227 464.272 211.175 464.016 211.167 463.704H211.359C211.303 463.976 211.167 464.224 210.951 464.448C210.743 464.664 210.479 464.836 210.159 464.964C209.839 465.084 209.495 465.144 209.127 465.144ZM209.223 464.256C209.655 464.256 210.015 464.184 210.303 464.04C210.591 463.888 210.807 463.68 210.951 463.416C211.095 463.144 211.167 462.832 211.167 462.48V461.928L209.223 462.312C208.791 462.392 208.491 462.516 208.323 462.684C208.155 462.844 208.071 463.056 208.071 463.32C208.071 463.616 208.171 463.848 208.371 464.016C208.579 464.176 208.863 464.256 209.223 464.256ZM216.839 465V458.184C216.839 457.928 216.767 457.728 216.623 457.584C216.479 457.44 216.279 457.368 216.023 457.368H214.523V456.48H216.071C216.655 456.48 217.095 456.632 217.391 456.936C217.695 457.232 217.847 457.672 217.847 458.256V465H216.839ZM214.283 465V464.112H220.043V465H214.283ZM231.577 465.192C230.897 465.192 230.321 465.012 229.849 464.652C229.377 464.292 229.017 463.78 228.769 463.116C228.529 462.452 228.409 461.664 228.409 460.752C228.409 459.832 228.529 459.04 228.769 458.376C229.017 457.712 229.377 457.2 229.849 456.84C230.321 456.472 230.897 456.288 231.577 456.288C232.329 456.288 232.969 456.536 233.497 457.032C234.025 457.52 234.377 458.204 234.553 459.084L233.449 459.156C233.313 458.54 233.077 458.076 232.741 457.764C232.413 457.452 232.025 457.296 231.577 457.296C231.121 457.296 230.737 457.432 230.425 457.704C230.121 457.968 229.889 458.36 229.729 458.88C229.569 459.392 229.489 460.016 229.489 460.752C229.489 461.48 229.569 462.1 229.729 462.612C229.889 463.124 230.121 463.516 230.425 463.788C230.737 464.052 231.121 464.184 231.577 464.184C232.073 464.184 232.493 464.012 232.837 463.668C233.181 463.324 233.413 462.812 233.533 462.132L234.625 462.192C234.473 463.128 234.129 463.864 233.593 464.4C233.057 464.928 232.385 465.192 231.577 465.192ZM238.748 465.144C238.164 465.144 237.652 465.008 237.212 464.736C236.78 464.464 236.444 464.08 236.204 463.584C235.964 463.08 235.844 462.492 235.844 461.82C235.844 461.14 235.964 460.552 236.204 460.056C236.444 459.56 236.78 459.176 237.212 458.904C237.652 458.632 238.164 458.496 238.748 458.496C239.332 458.496 239.84 458.632 240.272 458.904C240.712 459.176 241.052 459.56 241.292 460.056C241.532 460.552 241.652 461.14 241.652 461.82C241.652 462.492 241.532 463.08 241.292 463.584C241.052 464.08 240.712 464.464 240.272 464.736C239.84 465.008 239.332 465.144 238.748 465.144ZM238.748 464.184C239.332 464.184 239.784 463.976 240.104 463.56C240.432 463.136 240.596 462.556 240.596 461.82C240.596 461.084 240.432 460.508 240.104 460.092C239.784 459.668 239.332 459.456 238.748 459.456C238.164 459.456 237.708 459.668 237.38 460.092C237.06 460.508 236.9 461.084 236.9 461.82C236.9 462.556 237.06 463.136 237.38 463.56C237.708 463.976 238.164 464.184 238.748 464.184ZM245.62 465V458.184C245.62 457.928 245.548 457.728 245.404 457.584C245.26 457.44 245.06 457.368 244.804 457.368H243.304V456.48H244.852C245.436 456.48 245.876 456.632 246.172 456.936C246.476 457.232 246.628 457.672 246.628 458.256V465H245.62ZM243.064 465V464.112H248.824V465H243.064ZM252.815 465V458.184C252.815 457.928 252.743 457.728 252.599 457.584C252.455 457.44 252.255 457.368 251.999 457.368H250.499V456.48H252.047C252.631 456.48 253.071 456.632 253.367 456.936C253.671 457.232 253.823 457.672 253.823 458.256V465H252.815ZM250.259 465V464.112H256.019V465H250.259ZM260.442 465.144C259.842 465.144 259.322 465.008 258.882 464.736C258.45 464.464 258.114 464.08 257.874 463.584C257.642 463.08 257.526 462.492 257.526 461.82C257.526 461.148 257.642 460.564 257.874 460.068C258.114 459.572 258.446 459.188 258.87 458.916C259.302 458.636 259.81 458.496 260.394 458.496C260.946 458.496 261.434 458.628 261.858 458.892C262.282 459.148 262.614 459.524 262.854 460.02C263.094 460.516 263.214 461.12 263.214 461.832V462.132H258.582C258.622 462.812 258.802 463.324 259.122 463.668C259.45 464.012 259.89 464.184 260.442 464.184C260.858 464.184 261.198 464.088 261.462 463.896C261.734 463.696 261.922 463.436 262.026 463.116L263.106 463.2C262.938 463.768 262.618 464.236 262.146 464.604C261.682 464.964 261.114 465.144 260.442 465.144ZM258.582 461.244H262.11C262.062 460.628 261.882 460.176 261.57 459.888C261.258 459.6 260.866 459.456 260.394 459.456C259.906 459.456 259.502 459.608 259.182 459.912C258.87 460.208 258.67 460.652 258.582 461.244ZM267.698 465.144C267.106 465.144 266.59 465.008 266.15 464.736C265.71 464.464 265.37 464.08 265.13 463.584C264.89 463.08 264.77 462.492 264.77 461.82C264.77 461.148 264.89 460.564 265.13 460.068C265.37 459.572 265.71 459.188 266.15 458.916C266.59 458.636 267.106 458.496 267.698 458.496C268.17 458.496 268.59 458.584 268.958 458.76C269.326 458.928 269.63 459.176 269.87 459.504C270.11 459.832 270.274 460.232 270.362 460.704L269.306 460.776C269.21 460.352 269.018 460.028 268.73 459.804C268.45 459.572 268.106 459.456 267.698 459.456C267.114 459.456 266.654 459.668 266.318 460.092C265.99 460.508 265.826 461.084 265.826 461.82C265.826 462.556 265.99 463.136 266.318 463.56C266.654 463.976 267.114 464.184 267.698 464.184C268.106 464.184 268.458 464.064 268.754 463.824C269.058 463.584 269.258 463.224 269.354 462.744L270.41 462.816C270.322 463.288 270.154 463.7 269.906 464.052C269.658 464.396 269.346 464.664 268.97 464.856C268.594 465.048 268.17 465.144 267.698 465.144ZM275.661 465C275.045 465 274.585 464.856 274.281 464.568C273.977 464.28 273.825 463.84 273.825 463.248V457.152H274.833V463.248C274.833 463.544 274.901 463.764 275.037 463.908C275.173 464.044 275.381 464.112 275.661 464.112H277.365V465H275.661ZM271.725 459.528V458.64H277.365V459.528H271.725ZM281.836 465V458.64H282.844V465H281.836ZM279.28 465V464.112H285.04V465H279.28ZM279.4 459.528V458.64H282.844V459.528H279.4ZM281.74 457.644V456.468H282.796V457.644H281.74ZM288.48 465L286.116 458.64H287.22L289.116 463.968L291.012 458.64H292.116L289.752 465H288.48ZM296.419 465.144C295.819 465.144 295.299 465.008 294.859 464.736C294.427 464.464 294.091 464.08 293.851 463.584C293.619 463.08 293.503 462.492 293.503 461.82C293.503 461.148 293.619 460.564 293.851 460.068C294.091 459.572 294.423 459.188 294.847 458.916C295.279 458.636 295.787 458.496 296.371 458.496C296.923 458.496 297.411 458.628 297.835 458.892C298.259 459.148 298.591 459.524 298.831 460.02C299.071 460.516 299.191 461.12 299.191 461.832V462.132H294.559C294.599 462.812 294.779 463.324 295.099 463.668C295.427 464.012 295.867 464.184 296.419 464.184C296.835 464.184 297.175 464.088 297.439 463.896C297.711 463.696 297.899 463.436 298.003 463.116L299.083 463.2C298.915 463.768 298.595 464.236 298.123 464.604C297.659 464.964 297.091 465.144 296.419 465.144ZM294.559 461.244H298.087C298.039 460.628 297.859 460.176 297.547 459.888C297.235 459.6 296.843 459.456 296.371 459.456C295.883 459.456 295.479 459.608 295.159 459.912C294.847 460.208 294.647 460.652 294.559 461.244ZM303.626 465.144C303.074 465.144 302.598 465.048 302.198 464.856C301.798 464.664 301.482 464.408 301.25 464.088C301.026 463.76 300.898 463.396 300.866 462.996L301.922 462.924C301.986 463.316 302.158 463.624 302.438 463.848C302.726 464.072 303.122 464.184 303.626 464.184C304.098 464.184 304.462 464.116 304.718 463.98C304.982 463.844 305.114 463.632 305.114 463.344C305.114 463.16 305.07 463.008 304.982 462.888C304.894 462.768 304.73 462.668 304.49 462.588C304.25 462.5 303.898 462.416 303.434 462.336C302.818 462.224 302.334 462.088 301.982 461.928C301.638 461.76 301.394 461.552 301.25 461.304C301.106 461.056 301.034 460.76 301.034 460.416C301.034 460.048 301.126 459.72 301.31 459.432C301.494 459.144 301.766 458.916 302.126 458.748C302.486 458.58 302.926 458.496 303.446 458.496C303.974 458.496 304.414 458.592 304.766 458.784C305.126 458.968 305.41 459.216 305.618 459.528C305.826 459.832 305.962 460.168 306.026 460.536L304.97 460.608C304.922 460.384 304.83 460.188 304.694 460.02C304.566 459.844 304.394 459.708 304.178 459.612C303.97 459.508 303.722 459.456 303.434 459.456C302.97 459.456 302.626 459.548 302.402 459.732C302.178 459.916 302.066 460.144 302.066 460.416C302.066 460.632 302.118 460.804 302.222 460.932C302.326 461.06 302.494 461.164 302.726 461.244C302.958 461.316 303.266 461.384 303.65 461.448C304.306 461.552 304.814 461.688 305.174 461.856C305.534 462.016 305.786 462.216 305.93 462.456C306.074 462.696 306.146 462.992 306.146 463.344C306.146 463.72 306.034 464.044 305.81 464.316C305.594 464.58 305.294 464.784 304.91 464.928C304.534 465.072 304.106 465.144 303.626 465.144ZM316.337 462.18V455.088H319.973V456.024H317.309V462.18H316.337ZM332.168 465.576C331.888 465.576 331.62 465.496 331.364 465.336C331.108 465.184 330.9 464.984 330.74 464.736C330.58 464.488 330.5 464.232 330.5 463.968C330.5 463.648 330.588 463.344 330.764 463.056C330.94 462.76 331.16 462.508 331.424 462.3C331.696 462.084 331.964 461.928 332.228 461.832C331.956 461.912 331.676 461.952 331.388 461.952C331.02 461.952 330.676 461.884 330.356 461.748C330.036 461.612 329.78 461.42 329.588 461.172C329.396 460.916 329.3 460.616 329.3 460.272C329.3 459.928 329.372 459.628 329.516 459.372C329.668 459.108 329.868 458.904 330.116 458.76C330.364 458.616 330.636 458.544 330.932 458.544C331.284 458.544 331.644 458.648 332.012 458.856C332.388 459.056 332.7 459.312 332.948 459.624C332.812 459.424 332.692 459.18 332.588 458.892C332.492 458.596 332.444 458.288 332.444 457.968C332.444 457.648 332.512 457.36 332.648 457.104C332.792 456.84 332.988 456.632 333.236 456.48C333.492 456.32 333.788 456.24 334.124 456.24C334.62 456.24 335.02 456.408 335.324 456.744C335.628 457.072 335.78 457.48 335.78 457.968C335.78 458.264 335.736 458.56 335.648 458.856C335.56 459.144 335.436 459.4 335.276 459.624L335.324 459.564C335.58 459.244 335.88 458.996 336.224 458.82C336.576 458.636 336.94 458.544 337.316 458.544C337.604 458.544 337.872 458.616 338.12 458.76C338.368 458.896 338.568 459.092 338.72 459.348C338.872 459.604 338.948 459.908 338.948 460.26C338.948 460.612 338.844 460.916 338.636 461.172C338.436 461.428 338.176 461.624 337.856 461.76C337.536 461.888 337.2 461.952 336.848 461.952C336.664 461.944 336.5 461.932 336.356 461.916C336.212 461.892 336.092 461.864 335.996 461.832C336.276 461.928 336.548 462.084 336.812 462.3C337.084 462.508 337.308 462.756 337.484 463.044C337.66 463.332 337.748 463.648 337.748 463.992C337.748 464.232 337.668 464.476 337.508 464.724C337.356 464.964 337.152 465.164 336.896 465.324C336.64 465.492 336.364 465.576 336.068 465.576C335.676 465.576 335.332 465.452 335.036 465.204C334.748 464.964 334.524 464.64 334.364 464.232C334.284 464.024 334.224 463.836 334.184 463.668C334.144 463.492 334.124 463.336 334.124 463.2C334.036 463.936 333.82 464.516 333.476 464.94C333.14 465.364 332.704 465.576 332.168 465.576ZM333.452 459.816L333.836 459.672C333.876 459.584 333.9 459.5 333.908 459.42C333.924 459.34 333.932 459.272 333.932 459.216C333.932 459.136 333.916 459.036 333.884 458.916C333.852 458.788 333.836 458.696 333.836 458.64C333.836 458.528 333.86 458.432 333.908 458.352C333.956 458.272 334.028 458.232 334.124 458.232C334.22 458.232 334.292 458.272 334.34 458.352C334.388 458.432 334.412 458.528 334.412 458.64C334.412 458.72 334.392 458.816 334.352 458.928C334.312 459.04 334.292 459.136 334.292 459.216C334.292 459.352 334.324 459.504 334.388 459.672L334.772 459.816C334.932 459.656 335.06 459.444 335.156 459.18C335.252 458.908 335.299 458.632 335.299 458.352C335.299 457.976 335.192 457.676 334.976 457.452C334.76 457.22 334.476 457.104 334.124 457.104C333.78 457.104 333.492 457.22 333.26 457.452C333.036 457.676 332.924 457.976 332.924 458.352C332.924 458.632 332.972 458.908 333.068 459.18C333.164 459.444 333.292 459.656 333.452 459.816ZM331.7 461.664C332.028 461.664 332.308 461.6 332.54 461.472V461.064C332.5 461 332.42 460.944 332.3 460.896C332.18 460.848 332.02 460.816 331.82 460.8C331.428 460.76 331.232 460.64 331.232 460.44C331.232 460.352 331.26 460.288 331.316 460.248C331.38 460.208 331.448 460.188 331.52 460.188C331.568 460.188 331.632 460.204 331.712 460.236C331.8 460.26 331.896 460.304 332 460.368C332.208 460.496 332.428 460.56 332.66 460.56H332.708L332.948 460.224C332.868 460.056 332.74 459.896 332.564 459.744C332.388 459.584 332.188 459.452 331.964 459.348C331.74 459.244 331.508 459.192 331.268 459.192C330.932 459.192 330.656 459.312 330.44 459.552C330.232 459.792 330.128 460.08 330.128 460.416C330.128 460.776 330.272 461.076 330.56 461.316C330.856 461.548 331.236 461.664 331.7 461.664ZM336.536 461.664C337.008 461.664 337.388 461.548 337.676 461.316C337.972 461.076 338.12 460.776 338.12 460.416C338.12 460.064 338.008 459.772 337.784 459.54C337.568 459.308 337.296 459.192 336.968 459.192C336.728 459.192 336.492 459.244 336.26 459.348C336.028 459.452 335.824 459.584 335.648 459.744C335.48 459.904 335.356 460.064 335.276 460.224L335.54 460.56H335.588L335.684 460.548C335.78 460.532 335.876 460.512 335.972 460.488C336.068 460.464 336.164 460.424 336.26 460.368C336.452 460.248 336.6 460.188 336.704 460.188C336.896 460.188 336.992 460.276 336.992 460.452C336.992 460.652 336.836 460.76 336.524 460.776C336.204 460.792 335.932 460.888 335.708 461.064L335.684 461.472C335.916 461.6 336.2 461.664 336.536 461.664ZM332.36 464.808C332.632 464.808 332.872 464.708 333.08 464.508C333.296 464.308 333.464 464.068 333.584 463.788C333.712 463.5 333.776 463.232 333.776 462.984V462.864L333.764 462.768L333.38 462.648C333.1 462.816 332.924 463.036 332.852 463.308C332.78 463.58 332.648 463.716 332.456 463.716C332.384 463.716 332.32 463.688 332.264 463.632C332.216 463.568 332.192 463.504 332.192 463.44C332.192 463.28 332.296 463.128 332.504 462.984C332.712 462.84 332.852 462.624 332.924 462.336L332.708 462C332.5 462.04 332.272 462.136 332.024 462.288C331.776 462.44 331.564 462.632 331.388 462.864C331.22 463.096 331.136 463.352 331.136 463.632C331.136 463.84 331.196 464.036 331.316 464.22C331.436 464.396 331.588 464.54 331.771 464.652C331.964 464.756 332.16 464.808 332.36 464.808ZM335.816 464.808C336.024 464.808 336.22 464.752 336.404 464.64C336.596 464.528 336.748 464.384 336.86 464.208C336.98 464.024 337.04 463.832 337.04 463.632C337.04 463.352 336.952 463.1 336.776 462.876C336.608 462.644 336.4 462.452 336.152 462.3C335.912 462.148 335.684 462.048 335.467 462L335.252 462.336C335.284 462.472 335.332 462.592 335.396 462.696C335.468 462.8 335.556 462.896 335.66 462.984C335.868 463.152 335.972 463.312 335.972 463.464C335.972 463.528 335.944 463.588 335.888 463.644C335.84 463.692 335.784 463.716 335.72 463.716C335.544 463.716 335.408 463.58 335.312 463.308C335.224 463.06 335.052 462.84 334.796 462.648L334.412 462.768L334.4 462.864V462.984C334.4 463.128 334.428 463.3 334.484 463.5C334.548 463.692 334.632 463.884 334.736 464.076C334.848 464.26 334.976 464.412 335.12 464.532C335.344 464.716 335.576 464.808 335.816 464.808ZM351.918 459.144V466.236H348.282V465.3H350.946V459.144H351.918Z"
       fill="black"
       id="path31" />
  </g>
  <line
     x1="328"
     y1="63"
     y2="63"
     stroke="#FF8DA1"
     stroke-width="2"
     id="line31" />
  <defs
     id="defs160">
    <linearGradient
       id="paint0_linear_166_2"
       x1="516"
       y1="449"
       x2="542"
       y2="487.5"
       gradientUnits="userSpaceOnUse">
      <stop
         offset="0.2"
         stop-color="#FF9B6D"
         id="stop31" />
      <stop
         offset="0.2"
         stop-color="#FFA062"
         id="stop32" />
      <stop
         offset="0.4"
         stop-color="#FFA062"
         id="stop33" />
      <stop
         offset="0.4"
         stop-color="#FFA657"
         id="stop34" />
      <stop
         offset="0.6"
         stop-color="#FFA657"
         id="stop35" />
      <stop
         offset="0.6"
         stop-color="#FDAD4C"
         id="stop36" />
      <stop
         offset="0.8"
         stop-color="#FDAD4C"
         id="stop37" />
      <stop
         offset="0.8"
         stop-color="#F5B441"
         id="stop38" />
    </linearGradient>
    <linearGradient
       id="paint1_linear_166_2"
       x1="544.5"
       y1="157.5"
       x2="516"
       y2="199"
       gradientUnits="userSpaceOnUse">
      <stop
         offset="0.2"
         stop-color="#F5B441"
         id="stop39" />
      <stop
         offset="0.2"
         stop-color="#FDAD4C"
         id="stop40" />
      <stop
         offset="0.4"
         stop-color="#FDAD4C"
         id="stop41" />
      <stop
         offset="0.4"
         stop-color="#FFA657"
         id="stop42" />
      <stop
         offset="0.6"
         stop-color="#FFA657"
         id="stop43" />
      <stop
         offset="0.6"
         stop-color="#FFA062"
         id="stop44" />
      <stop
         offset="0.8"
         stop-color="#FFA062"
         id="stop45" />
      <stop
         offset="0.8"
         stop-color="#FF9B6D"
         id="stop46" />
    </linearGradient>
    <linearGradient
       id="paint2_linear_166_2"
       x1="516"
       y1="317"
       x2="550"
       y2="320"
       gradientUnits="userSpaceOnUse">
      <stop
         offset="0.2"
         stop-color="#FF4A6D"
         id="stop47" />
      <stop
         offset="0.2"
         stop-color="#FF695C"
         id="stop48" />
      <stop
         offset="0.4"
         stop-color="#FF695C"
         id="stop49" />
      <stop
         offset="0.4"
         stop-color="#FF8149"
         id="stop50" />
      <stop
         offset="0.6"
         stop-color="#FF8149"
         id="stop51" />
      <stop
         offset="0.6"
         stop-color="#FF9C40"
         id="stop52" />
      <stop
         offset="0.8"
         stop-color="#FF9C40"
         id="stop53" />
      <stop
         offset="0.8"
         stop-color="#F4B341"
         id="stop54" />
    </linearGradient>
    <linearGradient
       id="paint3_linear_166_2"
       x1="550"
       y1="340"
       x2="516"
       y2="370"
       gradientUnits="userSpaceOnUse">
      <stop
         offset="0.2"
         stop-color="#F5B441"
         id="stop55" />
      <stop
         offset="0.2"
         stop-color="#FDAD4C"
         id="stop56" />
      <stop
         offset="0.4"
         stop-color="#FDAD4C"
         id="stop57" />
      <stop
         offset="0.4"
         stop-color="#FFA657"
         id="stop58" />
      <stop
         offset="0.6"
         stop-color="#FFA657"
         id="stop59" />
      <stop
         offset="0.6"
         stop-color="#FFA062"
         id="stop60" />
      <stop
         offset="0.8"
         stop-color="#FFA062"
         id="stop61" />
      <stop
         offset="0.8"
         stop-color="#FF9B6D"
         id="stop62" />
    </linearGradient>
    <linearGradient
       id="paint4_linear_166_2"
       x1="516"
       y1="321.5"
       x2="548.5"
       y2="321.5"
       gradientUnits="userSpaceOnUse">
      <stop
         offset="0.2"
         stop-color="#CE62CF"
         id="stop63" />
      <stop
         offset="0.2"
         stop-color="#B860DA"
         id="stop64" />
      <stop
         offset="0.4"
         stop-color="#B860DA"
         id="stop65" />
      <stop
         offset="0.4"
         stop-color="#9D61E5"
         id="stop66" />
      <stop
         offset="0.6"
         stop-color="#9D61E5"
         id="stop67" />
      <stop
         offset="0.6"
         stop-color="#7963EE"
         id="stop68" />
      <stop
         offset="0.8"
         stop-color="#7963EE"
         id="stop69" />
      <stop
         offset="0.8"
         stop-color="#4166F5"
         id="stop70" />
    </linearGradient>
    <linearGradient
       id="paint5_linear_166_2"
       x1="484"
       y1="308.5"
       x2="516"
       y2="317"
       gradientUnits="userSpaceOnUse">
      <stop
         stop-color="#8A2BE2"
         id="stop71" />
      <stop
         offset="0.2"
         stop-color="#8A2BE2"
         id="stop72" />
      <stop
         offset="0.2"
         stop-color="#BC00CC"
         id="stop73" />
      <stop
         offset="0.4"
         stop-color="#BC00CC"
         id="stop74" />
      <stop
         offset="0.4"
         stop-color="#DF00B3"
         id="stop75" />
      <stop
         offset="0.6"
         stop-color="#DF00B3"
         id="stop76" />
      <stop
         offset="0.6"
         stop-color="#F7009A"
         id="stop77" />
      <stop
         offset="0.8"
         stop-color="#F7009A"
         id="stop78" />
      <stop
         offset="0.8"
         stop-color="#FF1381"
         id="stop79" />
    </linearGradient>
    <linearGradient
       id="paint6_linear_166_2"
       x1="421"
       y1="-20.5"
       x2="383"
       y2="31"
       gradientUnits="userSpaceOnUse">
      <stop
         offset="0.2"
         stop-color="#8A2BE2"
         id="stop80" />
      <stop
         offset="0.2"
         stop-color="#A728D7"
         id="stop81" />
      <stop
         offset="0.4"
         stop-color="#A728D7"
         id="stop82" />
      <stop
         offset="0.4"
         stop-color="#BE2BCC"
         id="stop83" />
      <stop
         offset="0.6"
         stop-color="#BE2BCC"
         id="stop84" />
      <stop
         offset="0.6"
         stop-color="#D033C1"
         id="stop85" />
      <stop
         offset="0.8"
         stop-color="#D033C1"
         id="stop86" />
      <stop
         offset="0.8"
         stop-color="#DE3FB8"
         id="stop87" />
    </linearGradient>
    <linearGradient
       id="paint7_linear_166_2"
       x1="382"
       y1="31"
       x2="360"
       y2="90.5"
       gradientUnits="userSpaceOnUse">
      <stop
         offset="0.2"
         stop-color="#DE3FB8"
         id="stop88" />
      <stop
         offset="0.2"
         stop-color="#D033C1"
         id="stop89" />
      <stop
         offset="0.4"
         stop-color="#D033C1"
         id="stop90" />
      <stop
         offset="0.4"
         stop-color="#BE2BCC"
         id="stop91" />
      <stop
         offset="0.6"
         stop-color="#BE2BCC"
         id="stop92" />
      <stop
         offset="0.6"
         stop-color="#A728D7"
         id="stop93" />
      <stop
         offset="0.8"
         stop-color="#A728D7"
         id="stop94" />
      <stop
         offset="0.8"
         stop-color="#8A2BE2"
         id="stop95" />
    </linearGradient>
    <linearGradient
       id="paint8_linear_166_2"
       x1="516"
       y1="370"
       x2="496.5"
       y2="404.5"
       gradientUnits="userSpaceOnUse">
      <stop
         offset="0.2"
         stop-color="#FF9678"
         id="stop96" />
      <stop
         offset="0.2"
         stop-color="#FF9383"
         id="stop97" />
      <stop
         offset="0.4"
         stop-color="#FF9383"
         id="stop98" />
      <stop
         offset="0.4"
         stop-color="#FF908E"
         id="stop99" />
      <stop
         offset="0.6"
         stop-color="#FF908E"
         id="stop100" />
      <stop
         offset="0.6"
         stop-color="#FF8E98"
         id="stop101" />
      <stop
         offset="0.8"
         stop-color="#FF8E98"
         id="stop102" />
      <stop
         offset="0.8"
         stop-color="#FF8DA1"
         id="stop103" />
    </linearGradient>
    <linearGradient
       id="paint9_linear_166_2"
       x1="496.5"
       y1="404.5"
       x2="516"
       y2="449"
       gradientUnits="userSpaceOnUse">
      <stop
         offset="0.2"
         stop-color="#FF8DA1"
         id="stop104" />
      <stop
         offset="0.2"
         stop-color="#FF8E98"
         id="stop105" />
      <stop
         offset="0.4"
         stop-color="#FF8E98"
         id="stop106" />
      <stop
         offset="0.4"
         stop-color="#FF908E"
         id="stop107" />
      <stop
         offset="0.6"
         stop-color="#FF908E"
         id="stop108" />
      <stop
         offset="0.6"
         stop-color="#FF9383"
         id="stop109" />
      <stop
         offset="0.8"
         stop-color="#FF9383"
         id="stop110" />
      <stop
         offset="0.8"
         stop-color="#FF9678"
         id="stop111" />
    </linearGradient>
    <linearGradient
       id="paint10_linear_166_2"
       x1="516"
       y1="199"
       x2="496.5"
       y2="243.5"
       gradientUnits="userSpaceOnUse">
      <stop
         offset="0.2"
         stop-color="#FF9678"
         id="stop112" />
      <stop
         offset="0.2"
         stop-color="#FF9383"
         id="stop113" />
      <stop
         offset="0.4"
         stop-color="#FF9383"
         id="stop114" />
      <stop
         offset="0.4"
         stop-color="#FF908E"
         id="stop115" />
      <stop
         offset="0.6"
         stop-color="#FF908E"
         id="stop116" />
      <stop
         offset="0.6"
         stop-color="#FF8E98"
         id="stop117" />
      <stop
         offset="0.8"
         stop-color="#FF8E98"
         id="stop118" />
      <stop
         offset="0.8"
         stop-color="#FF8DA1"
         id="stop119" />
    </linearGradient>
    <linearGradient
       id="paint11_linear_166_2"
       x1="249"
       y1="319.5"
       x2="294"
       y2="319.5"
       gradientUnits="userSpaceOnUse">
      <stop
         offset="0.2"
         stop-color="#8A2BE2"
         id="stop120" />
      <stop
         offset="0.2"
         stop-color="#A728D7"
         id="stop121" />
      <stop
         offset="0.4"
         stop-color="#A728D7"
         id="stop122" />
      <stop
         offset="0.4"
         stop-color="#BE2BCC"
         id="stop123" />
      <stop
         offset="0.6"
         stop-color="#BE2BCC"
         id="stop124" />
      <stop
         offset="0.6"
         stop-color="#D033C1"
         id="stop125" />
      <stop
         offset="0.8"
         stop-color="#D033C1"
         id="stop126" />
      <stop
         offset="0.8"
         stop-color="#DE3FB8"
         id="stop127" />
    </linearGradient>
    <linearGradient
       id="paint12_linear_166_2"
       x1="486.44"
       y1="321.5"
       x2="516"
       y2="321.5"
       gradientUnits="userSpaceOnUse">
      <stop
         offset="0.2"
         stop-color="#FF8DA1"
         id="stop128" />
      <stop
         offset="0.2"
         stop-color="#FB81A7"
         id="stop129" />
      <stop
         offset="0.4"
         stop-color="#FB81A7"
         id="stop130" />
      <stop
         offset="0.4"
         stop-color="#F576AF"
         id="stop131" />
      <stop
         offset="0.6"
         stop-color="#F576AF"
         id="stop132" />
      <stop
         offset="0.6"
         stop-color="#EB6DB9"
         id="stop133" />
      <stop
         offset="0.8"
         stop-color="#EB6DB9"
         id="stop134" />
      <stop
         offset="0.8"
         stop-color="#DF66C3"
         id="stop135" />
    </linearGradient>
    <linearGradient
       id="paint13_linear_166_2"
       x1="293"
       y1="319.5"
       x2="335"
       y2="319.5"
       gradientUnits="userSpaceOnUse">
      <stop
         offset="0.2"
         stop-color="#EA4EAF"
         id="stop136" />
      <stop
         offset="0.2"
         stop-color="#F25DA9"
         id="stop137" />
      <stop
         offset="0.4"
         stop-color="#F25DA9"
         id="stop138" />
      <stop
         offset="0.4"
         stop-color="#F86DA4"
         id="stop139" />
      <stop
         offset="0.6"
         stop-color="#F86DA4"
         id="stop140" />
      <stop
         offset="0.6"
         stop-color="#FC7DA1"
         id="stop141" />
      <stop
         offset="0.8"
         stop-color="#FC7DA1"
         id="stop142" />
      <stop
         offset="0.8"
         stop-color="#FF8DA1"
         id="stop143" />
    </linearGradient>
    <linearGradient
       id="paint14_linear_166_2"
       x1="244"
       y1="317.5"
       x2="294"
       y2="321.5"
       gradientUnits="userSpaceOnUse">
      <stop
         offset="0.2"
         stop-color="#FF8DA1"
         id="stop144" />
      <stop
         offset="0.2"
         stop-color="#FC7DA1"
         id="stop145" />
      <stop
         offset="0.4"
         stop-color="#FC7DA1"
         id="stop146" />
      <stop
         offset="0.4"
         stop-color="#F86DA4"
         id="stop147" />
      <stop
         offset="0.6"
         stop-color="#F86DA4"
         id="stop148" />
      <stop
         offset="0.6"
         stop-color="#F25DA9"
         id="stop149" />
      <stop
         offset="0.8"
         stop-color="#F25DA9"
         id="stop150" />
      <stop
         offset="0.8"
         stop-color="#EA4EAF"
         id="stop151" />
    </linearGradient>
    <linearGradient
       id="paint15_linear_166_2"
       x1="383"
       y1="31"
       x2="328"
       y2="63"
       gradientUnits="userSpaceOnUse">
      <stop
         offset="0.2"
         stop-color="#EA4EAF"
         id="stop152" />
      <stop
         offset="0.2"
         stop-color="#F25DA9"
         id="stop153" />
      <stop
         offset="0.4"
         stop-color="#F25DA9"
         id="stop154" />
      <stop
         offset="0.4"
         stop-color="#F86DA4"
         id="stop155" />
      <stop
         offset="0.6"
         stop-color="#F86DA4"
         id="stop156" />
      <stop
         offset="0.6"
         stop-color="#FC7DA1"
         id="stop157" />
      <stop
         offset="0.8"
         stop-color="#FC7DA1"
         id="stop158" />
      <stop
         offset="0.8"
         stop-color="#FF8DA1"
         id="stop159" />
    </linearGradient>
    <clipPath
       id="clip0_166_2">
      <rect
         width="516"
         height="516"
         fill="white"
         transform="translate(516)"
         id="rect159" />
    </clipPath>
    <clipPath
       id="clip1_166_2">
      <rect
         width="516"
         height="516"
         fill="white"
         id="rect160" />
    </clipPath>
  </defs>
</svg>
