<svg width="1032" height="516" viewBox="0 0 1032 516" fill="none" xmlns="http://www.w3.org/2000/svg">
<g clip-path="url(#clip0_161_432)">
<rect width="516" height="516" transform="translate(516)" fill="url(#paint0_linear_161_432)"/>
<path d="M998.5 324C998.5 357.815 991.84 391.3 978.899 422.541C965.958 453.782 946.991 482.169 923.08 506.08C899.169 529.991 870.782 548.958 839.541 561.899C808.3 574.84 774.815 581.5 741 581.5C707.185 581.5 673.7 574.84 642.459 561.899C611.218 548.958 582.831 529.991 558.92 506.08C535.009 482.169 516.042 453.782 503.101 422.541C490.16 391.3 483.5 357.815 483.5 324C483.5 290.185 490.16 256.7 503.101 225.459C516.042 194.218 535.009 165.831 558.92 141.92C582.831 118.009 611.218 99.0416 642.459 86.101C673.7 73.1604 707.185 66.5 741 66.5C774.815 66.5 808.3 73.1604 839.541 86.101C870.782 99.0416 899.169 118.009 923.08 141.92C946.991 165.831 965.958 194.218 978.899 225.459C991.84 256.7 998.5 290.185 998.5 324L998.5 324Z" stroke="url(#paint1_linear_161_432)"/>
<path d="M998.5 324C998.5 357.815 991.84 391.3 978.899 422.541C965.958 453.782 946.991 482.169 923.08 506.08C899.169 529.991 870.782 548.958 839.541 561.899C808.3 574.84 774.815 581.5 741 581.5C707.185 581.5 673.7 574.84 642.459 561.899C611.218 548.958 582.831 529.991 558.92 506.08C535.009 482.169 516.042 453.782 503.101 422.541C490.16 391.3 483.5 357.815 483.5 324C483.5 290.185 490.16 256.7 503.101 225.459C516.042 194.218 535.009 165.831 558.92 141.92C582.831 118.009 611.218 99.0416 642.459 86.101C673.7 73.1604 707.185 66.5 741 66.5C774.815 66.5 808.3 73.1604 839.541 86.101C870.782 99.0416 899.169 118.009 923.08 141.92C946.991 165.831 965.958 194.218 978.899 225.459C991.84 256.7 998.5 290.185 998.5 324L998.5 324Z" stroke="url(#paint2_linear_161_432)"/>
<path d="M742.5 129C767.779 129 792.811 133.979 816.167 143.653C839.522 153.327 860.743 167.507 878.618 185.382C896.493 203.257 910.673 224.478 920.347 247.833C930.021 271.189 935 296.221 935 321.5C935 346.779 930.021 371.811 920.347 395.167C910.673 418.522 896.493 439.743 878.618 457.618C860.743 475.493 839.522 489.673 816.167 499.347C792.811 509.021 767.779 514 742.5 514C717.22 514 692.189 509.021 668.833 499.347C645.478 489.673 624.257 475.493 606.382 457.618C588.507 439.743 574.327 418.522 564.653 395.166C554.979 371.811 550 346.779 550 321.5C550 296.22 554.979 271.189 564.653 247.833C574.327 224.478 588.507 203.257 606.382 185.382C624.257 167.507 645.478 153.327 668.834 143.653C692.189 133.979 717.221 129 742.5 129L742.5 129Z" stroke="#FDD58A" stroke-width="2"/>
<path d="M745 447.5C728.256 447.5 711.677 444.202 696.208 437.795C680.739 431.387 666.683 421.996 654.844 410.156C643.004 398.317 633.613 384.261 627.205 368.792C620.798 353.323 617.5 336.744 617.5 320C617.5 303.256 620.798 286.677 627.205 271.208C633.613 255.739 643.004 241.683 654.844 229.844C666.683 218.004 680.739 208.613 696.208 202.205C711.677 195.798 728.256 192.5 745 192.5C761.744 192.5 778.323 195.798 793.792 202.205C809.261 208.613 823.317 218.004 835.156 229.844C846.996 241.683 856.387 255.739 862.795 271.208C869.202 286.677 872.5 303.256 872.5 320C872.5 336.744 869.202 353.323 862.795 368.792C856.387 384.261 846.996 398.317 835.156 410.156C823.317 421.996 809.261 431.387 793.792 437.795C778.323 444.202 761.743 447.5 745 447.5L745 447.5Z" stroke="#FDD58A" stroke-width="3"/>
<path d="M805 321.5C805 329.708 803.383 337.835 800.242 345.418C797.102 353.001 792.498 359.891 786.694 365.694C780.891 371.498 774.001 376.102 766.418 379.242C758.835 382.383 750.708 384 742.5 384C734.292 384 726.165 382.383 718.582 379.242C710.999 376.102 704.109 371.498 698.306 365.694C692.502 359.891 687.898 353.001 684.758 345.418C681.617 337.835 680 329.708 680 321.5C680 313.292 681.617 305.165 684.758 297.582C687.898 289.999 692.502 283.109 698.306 277.306C704.109 271.502 710.999 266.898 718.582 263.758C726.165 260.617 734.292 259 742.5 259C750.708 259 758.835 260.617 766.418 263.758C774.001 266.898 780.891 271.502 786.694 277.306C792.498 283.109 797.102 289.999 800.242 297.582C803.383 305.165 805 313.292 805 321.5L805 321.5Z" stroke="#FDD58A" stroke-width="4"/>
<path d="M1256.5 66C1256.5 99.8154 1249.84 133.3 1236.9 164.541C1223.96 195.782 1204.99 224.169 1181.08 248.08C1157.17 271.991 1128.78 290.958 1097.54 303.899C1066.3 316.84 1032.82 323.5 999 323.5C965.185 323.5 931.7 316.84 900.459 303.899C869.218 290.958 840.831 271.991 816.92 248.08C793.009 224.169 774.042 195.782 761.101 164.541C748.16 133.3 741.5 99.8154 741.5 66C741.5 32.1846 748.16 -1.29967 761.101 -32.541C774.042 -63.7823 793.009 -92.1689 816.92 -116.08C840.831 -139.991 869.218 -158.958 900.459 -171.899C931.7 -184.84 965.185 -191.5 999 -191.5C1032.82 -191.5 1066.3 -184.84 1097.54 -171.899C1128.78 -158.958 1157.17 -139.991 1181.08 -116.08C1204.99 -92.1689 1223.96 -63.7823 1236.9 -32.5409C1249.84 -1.2996 1256.5 32.1847 1256.5 66L1256.5 66Z" stroke="#F5B441"/>
<path d="M549.5 -65C574.779 -65 599.811 -60.0208 623.167 -50.3468C646.522 -40.6728 667.743 -26.4933 685.618 -8.61804C703.493 9.25724 717.673 30.4783 727.347 53.8335C737.021 77.1886 742 102.221 742 127.5C742 152.779 737.021 177.811 727.347 201.167C717.673 224.522 703.493 245.743 685.618 263.618C667.743 281.493 646.522 295.673 623.167 305.347C599.811 315.021 574.779 320 549.5 320C524.22 320 499.189 315.021 475.833 305.347C452.478 295.673 431.257 281.493 413.382 263.618C395.507 245.743 381.327 224.522 371.653 201.166C361.979 177.811 357 152.779 357 127.5C357 102.22 361.979 77.1885 371.653 53.8333C381.327 30.4782 395.507 9.25713 413.382 -8.61813C431.257 -26.4934 452.478 -40.6728 475.834 -50.3469C499.189 -60.0209 524.221 -65 549.5 -65L549.5 -65Z" stroke="url(#paint3_linear_161_432)" stroke-width="2"/>
<path d="M616 576.5C599.256 576.5 582.677 573.202 567.208 566.795C551.739 560.387 537.683 550.996 525.844 539.156C514.004 527.317 504.613 513.261 498.205 497.792C491.798 482.323 488.5 465.744 488.5 449C488.5 432.256 491.798 415.677 498.205 400.208C504.613 384.739 514.004 370.683 525.844 358.844C537.683 347.004 551.739 337.613 567.208 331.205C582.677 324.798 599.256 321.5 616 321.5C632.744 321.5 649.323 324.798 664.792 331.205C680.261 337.613 694.317 347.004 706.156 358.844C717.996 370.683 727.387 384.739 733.795 400.208C740.202 415.677 743.5 432.256 743.5 449C743.5 465.744 740.202 482.323 733.795 497.792C727.387 513.261 717.996 527.317 706.156 539.156C694.317 550.996 680.261 560.387 664.792 566.795C649.323 573.202 632.743 576.5 616 576.5L616 576.5Z" stroke="url(#paint4_linear_161_432)" stroke-width="3"/>
<path d="M869.3 385.8C869.3 394.008 867.683 402.135 864.543 409.718C861.402 417.301 856.798 424.191 850.994 429.994C845.191 435.798 838.301 440.402 830.718 443.543C823.135 446.683 815.008 448.3 806.8 448.3C798.592 448.3 790.465 446.683 782.882 443.543C775.299 440.402 768.41 435.798 762.606 429.994C756.802 424.191 752.198 417.301 749.058 409.718C745.917 402.135 744.3 394.008 744.3 385.8C744.3 377.592 745.917 369.465 749.058 361.882C752.199 354.299 756.802 347.41 762.606 341.606C768.41 335.802 775.299 331.198 782.882 328.058C790.465 324.917 798.592 323.3 806.8 323.3C815.008 323.3 823.135 324.917 830.718 328.058C838.301 331.199 845.191 335.802 850.994 341.606C856.798 347.41 861.402 354.299 864.543 361.882C867.683 369.465 869.3 377.592 869.3 385.8L869.3 385.8Z" stroke="#F5B441" stroke-width="4"/>
<path d="M741 67C774.75 67 808.169 73.6475 839.35 86.563C870.53 99.4784 898.862 118.409 922.726 142.274C946.591 166.138 965.522 194.47 978.437 225.65C991.352 256.831 998 290.25 998 324" stroke="#4166F5" stroke-width="2"/>
<path d="M999 323C965.25 323 931.831 316.353 900.65 303.437C869.47 290.522 841.138 271.591 817.274 247.726C793.409 223.862 774.478 195.53 761.563 164.35C748.648 133.169 742 99.7497 742 66" stroke="#4166F5" stroke-width="2"/>
<path d="M550.5 321.5C550.5 296.286 555.466 271.319 565.115 248.025C574.764 224.73 588.907 203.564 606.735 185.736C624.564 167.907 645.73 153.764 669.025 144.115C692.319 134.466 717.286 129.5 742.5 129.5" stroke="#4166F5" stroke-width="3"/>
<path d="M741 128C741 153.214 736.034 178.181 726.385 201.475C716.736 224.77 702.593 245.936 684.765 263.764C666.936 281.593 645.77 295.736 622.475 305.385C599.181 315.034 574.214 320 549 320" stroke="#4166F5" stroke-width="3"/>
<path d="M745 447C728.322 447 711.808 443.715 696.399 437.333C680.991 430.95 666.99 421.596 655.197 409.803C643.404 398.01 634.05 384.009 627.667 368.601C621.285 353.192 618 336.678 618 320" stroke="#4166F5" stroke-width="4"/>
<path d="M616 322C632.678 322 649.192 325.285 664.601 331.667C680.009 338.05 694.01 347.404 705.803 359.197C717.596 370.99 726.95 384.991 733.333 400.399C739.715 415.808 743 432.322 743 449" stroke="#4166F5" stroke-width="4"/>
<path d="M804.5 321.5C804.5 329.642 802.896 337.704 799.781 345.226C796.665 352.749 792.098 359.583 786.341 365.341C780.583 371.098 773.749 375.665 766.226 378.781C758.704 381.896 750.642 383.5 742.5 383.5" stroke="#4166F5" stroke-width="5"/>
<path d="M744.8 385.8C744.8 377.658 746.404 369.596 749.52 362.074C752.635 354.551 757.202 347.717 762.959 341.959C768.717 336.202 775.551 331.635 783.074 328.52C790.596 325.404 798.658 323.8 806.8 323.8" stroke="#4166F5" stroke-width="5"/>
<line x1="617" y1="321.5" x2="516" y2="321.5" stroke="url(#paint5_linear_161_432)" stroke-width="3"/>
<line x1="743.65" y1="449" x2="743.65" y2="382" stroke="#4166F5" stroke-width="2.7"/>
<line x1="741.5" y1="130" x2="741.5" y2="66" stroke="#4166F5" stroke-width="2"/>
<line x1="806.009" y1="322.3" x2="999.009" y2="324" stroke="#4166F5" stroke-width="2"/>
</g>
<g clip-path="url(#clip1_161_432)">
<rect width="516" height="516" fill="url(#paint6_linear_161_432)"/>
<path d="M549.5 -65C574.779 -65 599.811 -60.0208 623.167 -50.3468C646.522 -40.6728 667.743 -26.4933 685.618 -8.61804C703.493 9.25724 717.673 30.4783 727.347 53.8335C737.021 77.1886 742 102.221 742 127.5C742 152.779 737.021 177.811 727.347 201.167C717.673 224.522 703.493 245.743 685.618 263.618C667.743 281.493 646.522 295.673 623.167 305.347C599.811 315.021 574.779 320 549.5 320C524.22 320 499.189 315.021 475.833 305.347C452.478 295.673 431.257 281.493 413.382 263.618C395.507 245.743 381.327 224.522 371.653 201.166C361.979 177.811 357 152.779 357 127.5C357 102.22 361.979 77.1885 371.653 53.8333C381.327 30.4782 395.507 9.25713 413.382 -8.61813C431.257 -26.4934 452.478 -40.6728 475.834 -50.3469C499.189 -60.0209 524.221 -65 549.5 -65L549.5 -65Z" stroke="url(#paint7_linear_161_432)" stroke-width="2"/>
<path d="M382.79 31.25C399.686 1.9863 423.986 -22.3145 453.25 -39.2099C482.514 -56.1053 515.709 -65 549.5 -65" stroke="url(#paint8_linear_161_432)" stroke-width="2"/>
<path d="M360.565 90.6248C364.647 69.7077 372.175 49.6137 382.841 31.1628" stroke="url(#paint9_linear_161_432)" stroke-width="2"/>
<path d="M616 576.5C599.256 576.5 582.677 573.202 567.208 566.795C551.739 560.387 537.683 550.996 525.844 539.156C514.004 527.317 504.613 513.261 498.205 497.792C491.798 482.323 488.5 465.744 488.5 449C488.5 432.256 491.798 415.677 498.205 400.208C504.613 384.739 514.004 370.683 525.844 358.844C537.683 347.004 551.739 337.613 567.208 331.205C582.677 324.798 599.256 321.5 616 321.5C632.744 321.5 649.323 324.798 664.792 331.205C680.261 337.613 694.317 347.004 706.156 358.844C717.996 370.683 727.387 384.739 733.795 400.208C740.202 415.677 743.5 432.256 743.5 449C743.5 465.744 740.202 482.323 733.795 497.792C727.387 513.261 717.996 527.317 706.156 539.156C694.317 550.996 680.261 560.387 664.792 566.795C649.323 573.202 632.743 576.5 616 576.5L616 576.5Z" stroke="url(#paint10_linear_161_432)" stroke-width="3"/>
<path d="M998.5 324C998.5 357.815 991.84 391.3 978.899 422.541C965.958 453.782 946.991 482.169 923.08 506.08C899.169 529.991 870.782 548.958 839.541 561.899C808.3 574.84 774.815 581.5 741 581.5C707.185 581.5 673.7 574.84 642.459 561.899C611.218 548.958 582.831 529.991 558.92 506.08C535.009 482.169 516.042 453.782 503.101 422.541C490.16 391.3 483.5 357.815 483.5 324C483.5 290.185 490.16 256.7 503.101 225.459C516.042 194.218 535.009 165.831 558.92 141.92C582.831 118.009 611.218 99.0416 642.459 86.101C673.7 73.1604 707.185 66.5 741 66.5C774.815 66.5 808.3 73.1604 839.541 86.101C870.782 99.0416 899.169 118.009 923.08 141.92C946.991 165.831 965.958 194.218 978.899 225.459C991.84 256.7 998.5 290.185 998.5 324L998.5 324Z" stroke="url(#paint11_linear_161_432)"/>
<path d="M998.5 324C998.5 357.815 991.84 391.3 978.899 422.541C965.958 453.782 946.991 482.169 923.08 506.08C899.169 529.991 870.782 548.958 839.541 561.899C808.3 574.84 774.815 581.5 741 581.5C707.185 581.5 673.7 574.84 642.459 561.899C611.218 548.958 582.831 529.991 558.92 506.08C535.009 482.169 516.042 453.782 503.101 422.541C490.16 391.3 483.5 357.815 483.5 324C483.5 290.185 490.16 256.7 503.101 225.459C516.042 194.218 535.009 165.831 558.92 141.92C582.831 118.009 611.218 99.0416 642.459 86.101C673.7 73.1604 707.185 66.5 741 66.5C774.815 66.5 808.3 73.1604 839.541 86.101C870.782 99.0416 899.169 118.009 923.08 141.92C946.991 165.831 965.958 194.218 978.899 225.459C991.84 256.7 998.5 290.185 998.5 324L998.5 324Z" stroke="url(#paint12_linear_161_432)"/>
<line x1="294" y1="321.5" y2="321.5" stroke="url(#paint13_linear_161_432)" stroke-width="3"/>
<path d="M334.5 322C334.5 332.839 332.519 343.571 328.672 353.583C324.825 363.596 319.186 372.69 312.081 380.35C304.975 388.009 296.542 394.083 287.263 398.225C277.984 402.368 268.041 404.5 258 404.5" stroke="#8A2BE2" stroke-dasharray="8 8"/>
<line x1="516" y1="321.5" x2="335" y2="321.5" stroke="url(#paint14_linear_161_432)" stroke-width="3"/>
<line x1="335" y1="321.5" x2="293" y2="321.5" stroke="url(#paint15_linear_161_432)" stroke-width="3"/>
<path d="M294 321.525C231.463 321.525 170.304 303.157 118.115 268.7C65.9267 234.244 25.0083 185.218 0.44043 127.709" stroke="url(#paint16_linear_161_432)" stroke-width="1.55" stroke-dasharray="8 8"/>
<path d="M110.5 404.5C95.7919 404.5 81.2279 407.397 67.6394 413.025C54.051 418.654 41.7042 426.904 31.304 437.304C20.9039 447.704 12.654 460.051 7.02549 473.639C1.39696 487.228 -1.5 501.792 -1.5 516.5" stroke="#FF8DA1" stroke-width="3"/>
<line x1="110" y1="404.5" x2="497" y2="404.5" stroke="#FF8DA1" stroke-width="3"/>
<line x1="356" y1="128" x2="-8.74228e-08" y2="128" stroke="#8A2BE2" stroke-width="2"/>
<path d="M382.793 31.25C377.219 40.9032 369.203 48.9193 359.55 54.4926C349.897 60.0659 338.947 63 327.8 63" stroke="url(#paint17_linear_161_432)" stroke-width="2"/>
<path d="M159.084 227V219.488H156.48V218.48H162.72V219.488H160.116V227H159.084ZM164.395 227V218.48H165.403V222.044L165.283 222.02C165.363 221.668 165.499 221.38 165.691 221.156C165.883 220.932 166.119 220.768 166.399 220.664C166.679 220.552 166.983 220.496 167.311 220.496C167.767 220.496 168.151 220.6 168.463 220.808C168.783 221.008 169.023 221.292 169.183 221.66C169.351 222.02 169.435 222.436 169.435 222.908V227H168.427V223.196C168.427 222.58 168.315 222.124 168.091 221.828C167.875 221.532 167.543 221.384 167.095 221.384C166.583 221.384 166.171 221.54 165.859 221.852C165.555 222.164 165.403 222.616 165.403 223.208V227H164.395ZM174.099 227.144C173.499 227.144 172.979 227.008 172.539 226.736C172.107 226.464 171.771 226.08 171.531 225.584C171.299 225.08 171.183 224.492 171.183 223.82C171.183 223.148 171.299 222.564 171.531 222.068C171.771 221.572 172.103 221.188 172.527 220.916C172.959 220.636 173.467 220.496 174.051 220.496C174.603 220.496 175.091 220.628 175.515 220.892C175.939 221.148 176.271 221.524 176.511 222.02C176.751 222.516 176.871 223.12 176.871 223.832V224.132H172.239C172.279 224.812 172.459 225.324 172.779 225.668C173.107 226.012 173.547 226.184 174.099 226.184C174.515 226.184 174.855 226.088 175.119 225.896C175.391 225.696 175.579 225.436 175.683 225.116L176.763 225.2C176.595 225.768 176.275 226.236 175.803 226.604C175.339 226.964 174.771 227.144 174.099 227.144ZM172.239 223.244H175.767C175.719 222.628 175.539 222.176 175.227 221.888C174.915 221.6 174.523 221.456 174.051 221.456C173.563 221.456 173.159 221.608 172.839 221.912C172.527 222.208 172.327 222.652 172.239 223.244ZM185.981 227V218.48H191.261V219.464H186.485L187.013 218.96V222.872L186.485 222.344H191.045V223.328H186.485L187.013 222.8V227H185.981ZM195.253 227V220.184C195.253 219.928 195.181 219.728 195.037 219.584C194.893 219.44 194.693 219.368 194.437 219.368H192.937V218.48H194.485C195.069 218.48 195.509 218.632 195.805 218.936C196.109 219.232 196.261 219.672 196.261 220.256V227H195.253ZM192.697 227V226.112H198.457V227H192.697ZM202.328 227.144C201.696 227.144 201.192 226.932 200.816 226.508C200.44 226.076 200.252 225.484 200.252 224.732V220.64H201.26V224.456C201.26 225.072 201.368 225.528 201.584 225.824C201.808 226.112 202.148 226.256 202.604 226.256C203.1 226.256 203.492 226.096 203.78 225.776C204.068 225.448 204.212 225 204.212 224.432V220.64H205.22V227H204.26V225.428L204.416 225.512C204.288 226.032 204.044 226.436 203.684 226.724C203.324 227.004 202.872 227.144 202.328 227.144ZM208.911 227V220.232C208.911 219.664 209.055 219.232 209.343 218.936C209.639 218.632 210.087 218.48 210.687 218.48H212.727V219.368H210.687C210.439 219.368 210.247 219.448 210.111 219.608C209.983 219.76 209.919 219.968 209.919 220.232V227H208.911ZM207.207 221.528V220.64H212.607V221.528H207.207ZM216.107 227V220.232C216.107 219.664 216.251 219.232 216.539 218.936C216.835 218.632 217.283 218.48 217.883 218.48H219.923V219.368H217.883C217.635 219.368 217.443 219.448 217.307 219.608C217.179 219.76 217.115 219.968 217.115 220.232V227H216.107ZM214.403 221.528V220.64H219.803V221.528H214.403ZM222.414 228.8V227.912H223.146C223.37 227.912 223.534 227.876 223.638 227.804C223.75 227.74 223.834 227.632 223.89 227.48L224.118 226.88H223.77L221.406 220.64H222.51L224.442 225.944L226.254 220.64H227.358L224.778 227.804C224.658 228.148 224.478 228.4 224.238 228.56C223.998 228.72 223.666 228.8 223.242 228.8H222.414ZM238.88 227.192C238.28 227.192 237.748 227.068 237.284 226.82C236.82 226.572 236.448 226.232 236.168 225.8C235.888 225.36 235.724 224.852 235.676 224.276L236.756 224.204C236.812 224.628 236.932 224.988 237.116 225.284C237.308 225.58 237.552 225.804 237.848 225.956C238.152 226.108 238.504 226.184 238.904 226.184C239.304 226.184 239.64 226.136 239.912 226.04C240.184 225.936 240.388 225.788 240.524 225.596C240.668 225.396 240.74 225.16 240.74 224.888C240.74 224.616 240.676 224.38 240.548 224.18C240.428 223.972 240.196 223.78 239.852 223.604C239.516 223.428 239.016 223.248 238.352 223.064C237.76 222.896 237.28 222.712 236.912 222.512C236.552 222.312 236.288 222.068 236.12 221.78C235.96 221.492 235.88 221.136 235.88 220.712C235.88 220.232 235.992 219.812 236.216 219.452C236.448 219.084 236.776 218.8 237.2 218.6C237.624 218.392 238.128 218.288 238.712 218.288C239.296 218.288 239.796 218.408 240.212 218.648C240.628 218.88 240.956 219.2 241.196 219.608C241.444 220.016 241.6 220.48 241.664 221L240.584 221.072C240.536 220.728 240.436 220.424 240.284 220.16C240.132 219.888 239.924 219.676 239.66 219.524C239.396 219.372 239.072 219.296 238.688 219.296C238.16 219.296 237.74 219.424 237.428 219.68C237.116 219.928 236.96 220.256 236.96 220.664C236.96 220.928 237.016 221.148 237.128 221.324C237.248 221.492 237.456 221.644 237.752 221.78C238.048 221.908 238.464 222.048 239 222.2C239.696 222.392 240.248 222.608 240.656 222.848C241.072 223.088 241.368 223.376 241.544 223.712C241.728 224.04 241.82 224.44 241.82 224.912C241.82 225.36 241.696 225.756 241.448 226.1C241.2 226.444 240.856 226.712 240.416 226.904C239.976 227.096 239.464 227.192 238.88 227.192ZM244 228.8V227.912H244.732C244.956 227.912 245.12 227.876 245.224 227.804C245.336 227.74 245.42 227.632 245.476 227.48L245.704 226.88H245.356L242.992 220.64H244.096L246.028 225.944L247.84 220.64H248.944L246.364 227.804C246.244 228.148 246.064 228.4 245.824 228.56C245.584 228.72 245.252 228.8 244.828 228.8H244ZM253.259 227.144C252.707 227.144 252.231 227.048 251.831 226.856C251.431 226.664 251.115 226.408 250.883 226.088C250.659 225.76 250.531 225.396 250.499 224.996L251.555 224.924C251.619 225.316 251.791 225.624 252.071 225.848C252.359 226.072 252.755 226.184 253.259 226.184C253.731 226.184 254.095 226.116 254.351 225.98C254.615 225.844 254.747 225.632 254.747 225.344C254.747 225.16 254.703 225.008 254.615 224.888C254.527 224.768 254.363 224.668 254.123 224.588C253.883 224.5 253.531 224.416 253.067 224.336C252.451 224.224 251.967 224.088 251.615 223.928C251.271 223.76 251.027 223.552 250.883 223.304C250.739 223.056 250.667 222.76 250.667 222.416C250.667 222.048 250.759 221.72 250.943 221.432C251.127 221.144 251.399 220.916 251.759 220.748C252.119 220.58 252.559 220.496 253.079 220.496C253.607 220.496 254.047 220.592 254.399 220.784C254.759 220.968 255.043 221.216 255.251 221.528C255.459 221.832 255.595 222.168 255.659 222.536L254.603 222.608C254.555 222.384 254.463 222.188 254.327 222.02C254.199 221.844 254.027 221.708 253.811 221.612C253.603 221.508 253.355 221.456 253.067 221.456C252.603 221.456 252.259 221.548 252.035 221.732C251.811 221.916 251.699 222.144 251.699 222.416C251.699 222.632 251.751 222.804 251.855 222.932C251.959 223.06 252.127 223.164 252.359 223.244C252.591 223.316 252.899 223.384 253.283 223.448C253.939 223.552 254.447 223.688 254.807 223.856C255.167 224.016 255.419 224.216 255.563 224.456C255.707 224.696 255.779 224.992 255.779 225.344C255.779 225.72 255.667 226.044 255.443 226.316C255.227 226.58 254.927 226.784 254.543 226.928C254.167 227.072 253.739 227.144 253.259 227.144ZM261.27 227C260.654 227 260.194 226.856 259.89 226.568C259.586 226.28 259.434 225.84 259.434 225.248V219.152H260.442V225.248C260.442 225.544 260.51 225.764 260.646 225.908C260.782 226.044 260.99 226.112 261.27 226.112H262.974V227H261.27ZM257.334 221.528V220.64H262.974V221.528H257.334ZM267.638 227.144C267.038 227.144 266.518 227.008 266.078 226.736C265.646 226.464 265.31 226.08 265.07 225.584C264.838 225.08 264.722 224.492 264.722 223.82C264.722 223.148 264.838 222.564 265.07 222.068C265.31 221.572 265.642 221.188 266.066 220.916C266.498 220.636 267.006 220.496 267.59 220.496C268.142 220.496 268.63 220.628 269.054 220.892C269.478 221.148 269.81 221.524 270.05 222.02C270.29 222.516 270.41 223.12 270.41 223.832V224.132H265.778C265.818 224.812 265.998 225.324 266.318 225.668C266.646 226.012 267.086 226.184 267.638 226.184C268.054 226.184 268.394 226.088 268.658 225.896C268.93 225.696 269.118 225.436 269.222 225.116L270.302 225.2C270.134 225.768 269.814 226.236 269.342 226.604C268.878 226.964 268.31 227.144 267.638 227.144ZM265.778 223.244H269.306C269.258 222.628 269.078 222.176 268.766 221.888C268.454 221.6 268.062 221.456 267.59 221.456C267.102 221.456 266.698 221.608 266.378 221.912C266.066 222.208 265.866 222.652 265.778 223.244ZM271.605 227V220.64H272.529L272.565 222.056L272.445 222.032C272.517 221.56 272.669 221.188 272.901 220.916C273.141 220.636 273.445 220.496 273.813 220.496C274.189 220.496 274.477 220.632 274.677 220.904C274.885 221.176 275.013 221.576 275.061 222.104H274.941C275.013 221.608 275.173 221.216 275.421 220.928C275.677 220.64 275.997 220.496 276.381 220.496C276.893 220.496 277.265 220.672 277.497 221.024C277.729 221.376 277.845 221.96 277.845 222.776V227H276.837V222.92C276.837 222.352 276.777 221.956 276.657 221.732C276.537 221.5 276.349 221.384 276.093 221.384C275.925 221.384 275.777 221.44 275.649 221.552C275.521 221.656 275.417 221.824 275.337 222.056C275.265 222.288 275.229 222.584 275.229 222.944V227H274.221V222.92C274.221 222.376 274.161 221.984 274.041 221.744C273.929 221.504 273.741 221.384 273.477 221.384C273.309 221.384 273.161 221.44 273.033 221.552C272.905 221.656 272.801 221.824 272.721 222.056C272.649 222.288 272.613 222.584 272.613 222.944V227H271.605ZM289.188 228.896L286.476 223.004L289.056 217.592H290.004L287.472 223.004L290.136 228.896H289.188ZM303.825 227C303.497 227 303.221 226.952 302.997 226.856C302.781 226.752 302.597 226.584 302.445 226.352C302.301 226.112 302.165 225.792 302.037 225.392L300.393 220.04C300.329 219.824 300.241 219.66 300.129 219.548C300.025 219.428 299.865 219.368 299.649 219.368H298.893V218.48H299.565C300.069 218.48 300.461 218.604 300.741 218.852C301.029 219.092 301.261 219.504 301.437 220.088L303.081 225.44C303.129 225.576 303.181 225.696 303.237 225.8C303.293 225.904 303.365 225.984 303.453 226.04C303.549 226.088 303.669 226.112 303.813 226.112H304.233V227H303.825ZM298.341 227L300.837 220.64L301.545 221.396L299.397 227H298.341ZM312.323 228.896L314.987 223.004L312.455 217.592H313.403L315.983 223.004L313.271 228.896H312.323Z" fill="black"/>
</g>
<line x1="328" y1="63" y2="63" stroke="#FF8DA1" stroke-width="2"/>
<defs>
<linearGradient id="paint0_linear_161_432" x1="258" y1="0" x2="258" y2="516" gradientUnits="userSpaceOnUse">
<stop stop-color="#747171"/>
<stop offset="0.5" stop-color="#F3F3F3"/>
<stop offset="0.5" stop-color="#CCC8C8"/>
<stop offset="1" stop-color="white"/>
</linearGradient>
<linearGradient id="paint1_linear_161_432" x1="516" y1="449" x2="542" y2="487.5" gradientUnits="userSpaceOnUse">
<stop offset="0.2" stop-color="#FF9B6D"/>
<stop offset="0.2" stop-color="#FFA062"/>
<stop offset="0.4" stop-color="#FFA062"/>
<stop offset="0.4" stop-color="#FFA657"/>
<stop offset="0.6" stop-color="#FFA657"/>
<stop offset="0.6" stop-color="#FDAD4C"/>
<stop offset="0.8" stop-color="#FDAD4C"/>
<stop offset="0.8" stop-color="#F5B441"/>
</linearGradient>
<linearGradient id="paint2_linear_161_432" x1="544.5" y1="157.5" x2="516" y2="199" gradientUnits="userSpaceOnUse">
<stop offset="0.2" stop-color="#F5B441"/>
<stop offset="0.2" stop-color="#FDAD4C"/>
<stop offset="0.4" stop-color="#FDAD4C"/>
<stop offset="0.4" stop-color="#FFA657"/>
<stop offset="0.6" stop-color="#FFA657"/>
<stop offset="0.6" stop-color="#FFA062"/>
<stop offset="0.8" stop-color="#FFA062"/>
<stop offset="0.8" stop-color="#FF9B6D"/>
</linearGradient>
<linearGradient id="paint3_linear_161_432" x1="516" y1="317" x2="550" y2="320" gradientUnits="userSpaceOnUse">
<stop offset="0.2" stop-color="#FF4A6D"/>
<stop offset="0.2" stop-color="#FF695C"/>
<stop offset="0.4" stop-color="#FF695C"/>
<stop offset="0.4" stop-color="#FF8149"/>
<stop offset="0.6" stop-color="#FF8149"/>
<stop offset="0.6" stop-color="#FF9C40"/>
<stop offset="0.8" stop-color="#FF9C40"/>
<stop offset="0.8" stop-color="#F4B341"/>
</linearGradient>
<linearGradient id="paint4_linear_161_432" x1="550" y1="340" x2="516" y2="370" gradientUnits="userSpaceOnUse">
<stop offset="0.2" stop-color="#F5B441"/>
<stop offset="0.2" stop-color="#FDAD4C"/>
<stop offset="0.4" stop-color="#FDAD4C"/>
<stop offset="0.4" stop-color="#FFA657"/>
<stop offset="0.6" stop-color="#FFA657"/>
<stop offset="0.6" stop-color="#FFA062"/>
<stop offset="0.8" stop-color="#FFA062"/>
<stop offset="0.8" stop-color="#FF9B6D"/>
</linearGradient>
<linearGradient id="paint5_linear_161_432" x1="516" y1="321.5" x2="548.5" y2="321.5" gradientUnits="userSpaceOnUse">
<stop offset="0.2" stop-color="#CE62CF"/>
<stop offset="0.2" stop-color="#B860DA"/>
<stop offset="0.4" stop-color="#B860DA"/>
<stop offset="0.4" stop-color="#9D61E5"/>
<stop offset="0.6" stop-color="#9D61E5"/>
<stop offset="0.6" stop-color="#7963EE"/>
<stop offset="0.8" stop-color="#7963EE"/>
<stop offset="0.8" stop-color="#4166F5"/>
</linearGradient>
<linearGradient id="paint6_linear_161_432" x1="258" y1="0" x2="258" y2="516" gradientUnits="userSpaceOnUse">
<stop stop-color="#747171"/>
<stop offset="0.5" stop-color="#F3F3F3"/>
<stop offset="0.5" stop-color="#CCC8C8"/>
<stop offset="1" stop-color="white"/>
</linearGradient>
<linearGradient id="paint7_linear_161_432" x1="484" y1="308.5" x2="516" y2="317" gradientUnits="userSpaceOnUse">
<stop stop-color="#8A2BE2"/>
<stop offset="0.2" stop-color="#8A2BE2"/>
<stop offset="0.2" stop-color="#BC00CC"/>
<stop offset="0.4" stop-color="#BC00CC"/>
<stop offset="0.4" stop-color="#DF00B3"/>
<stop offset="0.6" stop-color="#DF00B3"/>
<stop offset="0.6" stop-color="#F7009A"/>
<stop offset="0.8" stop-color="#F7009A"/>
<stop offset="0.8" stop-color="#FF1381"/>
</linearGradient>
<linearGradient id="paint8_linear_161_432" x1="421" y1="-20.5" x2="383" y2="31" gradientUnits="userSpaceOnUse">
<stop offset="0.2" stop-color="#8A2BE2"/>
<stop offset="0.2" stop-color="#A728D7"/>
<stop offset="0.4" stop-color="#A728D7"/>
<stop offset="0.4" stop-color="#BE2BCC"/>
<stop offset="0.6" stop-color="#BE2BCC"/>
<stop offset="0.6" stop-color="#D033C1"/>
<stop offset="0.8" stop-color="#D033C1"/>
<stop offset="0.8" stop-color="#DE3FB8"/>
</linearGradient>
<linearGradient id="paint9_linear_161_432" x1="382" y1="31" x2="360" y2="90.5" gradientUnits="userSpaceOnUse">
<stop offset="0.2" stop-color="#DE3FB8"/>
<stop offset="0.2" stop-color="#D033C1"/>
<stop offset="0.4" stop-color="#D033C1"/>
<stop offset="0.4" stop-color="#BE2BCC"/>
<stop offset="0.6" stop-color="#BE2BCC"/>
<stop offset="0.6" stop-color="#A728D7"/>
<stop offset="0.8" stop-color="#A728D7"/>
<stop offset="0.8" stop-color="#8A2BE2"/>
</linearGradient>
<linearGradient id="paint10_linear_161_432" x1="516" y1="370" x2="496.5" y2="404.5" gradientUnits="userSpaceOnUse">
<stop offset="0.2" stop-color="#FF9678"/>
<stop offset="0.2" stop-color="#FF9383"/>
<stop offset="0.4" stop-color="#FF9383"/>
<stop offset="0.4" stop-color="#FF908E"/>
<stop offset="0.6" stop-color="#FF908E"/>
<stop offset="0.6" stop-color="#FF8E98"/>
<stop offset="0.8" stop-color="#FF8E98"/>
<stop offset="0.8" stop-color="#FF8DA1"/>
</linearGradient>
<linearGradient id="paint11_linear_161_432" x1="496.5" y1="404.5" x2="516" y2="449" gradientUnits="userSpaceOnUse">
<stop offset="0.2" stop-color="#FF8DA1"/>
<stop offset="0.2" stop-color="#FF8E98"/>
<stop offset="0.4" stop-color="#FF8E98"/>
<stop offset="0.4" stop-color="#FF908E"/>
<stop offset="0.6" stop-color="#FF908E"/>
<stop offset="0.6" stop-color="#FF9383"/>
<stop offset="0.8" stop-color="#FF9383"/>
<stop offset="0.8" stop-color="#FF9678"/>
</linearGradient>
<linearGradient id="paint12_linear_161_432" x1="516" y1="199" x2="496.5" y2="243.5" gradientUnits="userSpaceOnUse">
<stop offset="0.2" stop-color="#FF9678"/>
<stop offset="0.2" stop-color="#FF9383"/>
<stop offset="0.4" stop-color="#FF9383"/>
<stop offset="0.4" stop-color="#FF908E"/>
<stop offset="0.6" stop-color="#FF908E"/>
<stop offset="0.6" stop-color="#FF8E98"/>
<stop offset="0.8" stop-color="#FF8E98"/>
<stop offset="0.8" stop-color="#FF8DA1"/>
</linearGradient>
<linearGradient id="paint13_linear_161_432" x1="249" y1="319.5" x2="294" y2="319.5" gradientUnits="userSpaceOnUse">
<stop offset="0.2" stop-color="#8A2BE2"/>
<stop offset="0.2" stop-color="#A728D7"/>
<stop offset="0.4" stop-color="#A728D7"/>
<stop offset="0.4" stop-color="#BE2BCC"/>
<stop offset="0.6" stop-color="#BE2BCC"/>
<stop offset="0.6" stop-color="#D033C1"/>
<stop offset="0.8" stop-color="#D033C1"/>
<stop offset="0.8" stop-color="#DE3FB8"/>
</linearGradient>
<linearGradient id="paint14_linear_161_432" x1="486.44" y1="321.5" x2="516" y2="321.5" gradientUnits="userSpaceOnUse">
<stop offset="0.2" stop-color="#FF8DA1"/>
<stop offset="0.2" stop-color="#FB81A7"/>
<stop offset="0.4" stop-color="#FB81A7"/>
<stop offset="0.4" stop-color="#F576AF"/>
<stop offset="0.6" stop-color="#F576AF"/>
<stop offset="0.6" stop-color="#EB6DB9"/>
<stop offset="0.8" stop-color="#EB6DB9"/>
<stop offset="0.8" stop-color="#DF66C3"/>
</linearGradient>
<linearGradient id="paint15_linear_161_432" x1="293" y1="319.5" x2="335" y2="319.5" gradientUnits="userSpaceOnUse">
<stop offset="0.2" stop-color="#EA4EAF"/>
<stop offset="0.2" stop-color="#F25DA9"/>
<stop offset="0.4" stop-color="#F25DA9"/>
<stop offset="0.4" stop-color="#F86DA4"/>
<stop offset="0.6" stop-color="#F86DA4"/>
<stop offset="0.6" stop-color="#FC7DA1"/>
<stop offset="0.8" stop-color="#FC7DA1"/>
<stop offset="0.8" stop-color="#FF8DA1"/>
</linearGradient>
<linearGradient id="paint16_linear_161_432" x1="244" y1="317.5" x2="294" y2="321.5" gradientUnits="userSpaceOnUse">
<stop offset="0.2" stop-color="#FF8DA1"/>
<stop offset="0.2" stop-color="#FC7DA1"/>
<stop offset="0.4" stop-color="#FC7DA1"/>
<stop offset="0.4" stop-color="#F86DA4"/>
<stop offset="0.6" stop-color="#F86DA4"/>
<stop offset="0.6" stop-color="#F25DA9"/>
<stop offset="0.8" stop-color="#F25DA9"/>
<stop offset="0.8" stop-color="#EA4EAF"/>
</linearGradient>
<linearGradient id="paint17_linear_161_432" x1="383" y1="31" x2="328" y2="63" gradientUnits="userSpaceOnUse">
<stop offset="0.2" stop-color="#EA4EAF"/>
<stop offset="0.2" stop-color="#F25DA9"/>
<stop offset="0.4" stop-color="#F25DA9"/>
<stop offset="0.4" stop-color="#F86DA4"/>
<stop offset="0.6" stop-color="#F86DA4"/>
<stop offset="0.6" stop-color="#FC7DA1"/>
<stop offset="0.8" stop-color="#FC7DA1"/>
<stop offset="0.8" stop-color="#FF8DA1"/>
</linearGradient>
<clipPath id="clip0_161_432">
<rect width="516" height="516" fill="white" transform="translate(516)"/>
</clipPath>
<clipPath id="clip1_161_432">
<rect width="516" height="516" fill="white"/>
</clipPath>
</defs>
</svg>
